<?xml version="1.0" encoding="UTF-8" standalone="no"?>
<!-- Created with Inkscape (http://www.inkscape.org/) -->

<svg
   xmlns:osb="http://www.openswatchbook.org/uri/2009/osb"
   xmlns:dc="http://purl.org/dc/elements/1.1/"
   xmlns:cc="http://creativecommons.org/ns#"
   xmlns:rdf="http://www.w3.org/1999/02/22-rdf-syntax-ns#"
   xmlns:svg="http://www.w3.org/2000/svg"
   xmlns="http://www.w3.org/2000/svg"
   xmlns:xlink="http://www.w3.org/1999/xlink"
   xmlns:sodipodi="http://sodipodi.sourceforge.net/DTD/sodipodi-0.dtd"
   xmlns:inkscape="http://www.inkscape.org/namespaces/inkscape"
   width="744.09448819"
   height="1052.3622047"
   id="svg2"
   version="1.1"
   inkscape:version="0.48.4 r9939"
   sodipodi:docname="triangle monster.svg"
   inkscape:export-filename="/home/clinstid/src/shapemonster/trianglemonster.png"
   inkscape:export-xdpi="180.67999"
   inkscape:export-ydpi="180.67999">
  <defs
     id="defs4">
    <linearGradient
       id="linearGradient5569">
      <stop
         style="stop-color:#000000;stop-opacity:1;"
         offset="0"
         id="stop5571" />
      <stop
         style="stop-color:#000000;stop-opacity:0;"
         offset="1"
         id="stop5573" />
    </linearGradient>
    <linearGradient
       id="linearGradient5563"
       osb:paint="solid">
      <stop
         style="stop-color:#000000;stop-opacity:1;"
         offset="0"
         id="stop5565" />
    </linearGradient>
    <linearGradient
       id="linearGradient5320">
      <stop
         style="stop-color:#ff6600;stop-opacity:1;"
         offset="0"
         id="stop5322" />
      <stop
         id="stop5330"
         offset="0.25"
         style="stop-color:#ff6600;stop-opacity:0.74901961;" />
      <stop
         id="stop5328"
         offset="1"
         style="stop-color:#ff6600;stop-opacity:0.49803922;" />
    </linearGradient>
    <linearGradient
       inkscape:collect="always"
       id="linearGradient5292">
      <stop
         style="stop-color:#000000;stop-opacity:1;"
         offset="0"
         id="stop5294" />
      <stop
         style="stop-color:#000000;stop-opacity:0;"
         offset="1"
         id="stop5296" />
    </linearGradient>
    <linearGradient
       id="linearGradient5286">
      <stop
         style="stop-color:#000000;stop-opacity:1;"
         offset="0"
         id="stop5288" />
      <stop
         style="stop-color:#000000;stop-opacity:0;"
         offset="1"
         id="stop5290" />
    </linearGradient>
    <linearGradient
       id="linearGradient5278"
       osb:paint="solid">
      <stop
         style="stop-color:#000000;stop-opacity:1;"
         offset="0"
         id="stop5280" />
    </linearGradient>
    <linearGradient
       inkscape:collect="always"
       xlink:href="#linearGradient5292"
       id="linearGradient5298"
       x1="136.3706"
       y1="428.59299"
       x2="193.94929"
       y2="428.59299"
       gradientUnits="userSpaceOnUse" />
    <filter
       inkscape:collect="always"
       id="filter5376">
      <feGaussianBlur
         inkscape:collect="always"
         stdDeviation="0.62649706"
         id="feGaussianBlur5378" />
    </filter>
    <linearGradient
       inkscape:collect="always"
       xlink:href="#linearGradient5394-9"
       id="linearGradient5400-8"
       x1="70.955017"
       y1="570.39319"
       x2="81.578018"
       y2="570.39319"
       gradientUnits="userSpaceOnUse" />
    <linearGradient
       inkscape:collect="always"
       id="linearGradient5394-9">
      <stop
         style="stop-color:#000000;stop-opacity:1;"
         offset="0"
         id="stop5396-3" />
      <stop
         style="stop-color:#000000;stop-opacity:0;"
         offset="1"
         id="stop5398-5" />
    </linearGradient>
    <linearGradient
       inkscape:collect="always"
       xlink:href="#linearGradient5442-0"
       id="linearGradient5450-3"
       x1="100.76779"
       y1="500.94516"
       x2="110.60663"
       y2="500.94516"
       gradientUnits="userSpaceOnUse" />
    <linearGradient
       inkscape:collect="always"
       id="linearGradient5442-0">
      <stop
         style="stop-color:#000000;stop-opacity:1;"
         offset="0"
         id="stop5444-4" />
      <stop
         style="stop-color:#000000;stop-opacity:0;"
         offset="1"
         id="stop5446-5" />
    </linearGradient>
    <linearGradient
       inkscape:collect="always"
       xlink:href="#linearGradient5442-07"
       id="linearGradient5450-39"
       x1="100.76779"
       y1="500.94516"
       x2="110.60663"
       y2="500.94516"
       gradientUnits="userSpaceOnUse" />
    <linearGradient
       inkscape:collect="always"
       id="linearGradient5442-07">
      <stop
         style="stop-color:#000000;stop-opacity:1;"
         offset="0"
         id="stop5444-9" />
      <stop
         style="stop-color:#000000;stop-opacity:0;"
         offset="1"
         id="stop5446-1" />
    </linearGradient>
    <linearGradient
       inkscape:collect="always"
       xlink:href="#linearGradient5442-9"
       id="linearGradient5450-4"
       x1="100.76779"
       y1="500.94516"
       x2="110.60663"
       y2="500.94516"
       gradientUnits="userSpaceOnUse" />
    <linearGradient
       inkscape:collect="always"
       id="linearGradient5442-9">
      <stop
         style="stop-color:#000000;stop-opacity:1;"
         offset="0"
         id="stop5444-3" />
      <stop
         style="stop-color:#000000;stop-opacity:0;"
         offset="1"
         id="stop5446-18" />
    </linearGradient>
    <filter
       id="filter5619"
       x="-0.15"
       width="1.3"
       y="-0.15"
       height="1.3"
       inkscape:menu-tooltip="Aquarelle paper effect which can be used for pictures as for objects"
       inkscape:menu="Textures"
       inkscape:label="Rough paper"
       color-interpolation-filters="sRGB">
      <feGaussianBlur
         id="feGaussianBlur5621"
         result="result1"
         in="SourceGraphic"
         stdDeviation="2" />
      <feTurbulence
         id="feTurbulence5623"
         result="result0"
         numOctaves="5"
         baseFrequency="0.05"
         type="fractalNoise" />
      <feDisplacementMap
         id="feDisplacementMap5625"
         in2="result0"
         result="result2"
         scale="20"
         yChannelSelector="G"
         xChannelSelector="R"
         in="result1" />
      <feGaussianBlur
         id="feGaussianBlur5627"
         result="result4"
         in="result2"
         stdDeviation="5" />
      <feComposite
         id="feComposite5629"
         in2="result4"
         result="result6"
         k1="1"
         k3="1"
         k2="0.5"
         in="result0"
         operator="arithmetic" />
      <feComposite
         id="feComposite5631"
         in2="result0"
         in="result6"
         operator="in"
         result="result91" />
      <feComposite
         id="feComposite5633"
         in2="result91"
         operator="arithmetic"
         k1="1.5"
         in="result2"
         result="fbSourceGraphic" />
      <feColorMatrix
         result="fbSourceGraphicAlpha"
         in="fbSourceGraphic"
         values="0 0 0 -1 0 0 0 0 -1 0 0 0 0 -1 0 0 0 0 1 0"
         id="feColorMatrix4087" />
      <feTurbulence
         id="feTurbulence4089"
         type="fractalNoise"
         baseFrequency="0.04"
         numOctaves="5"
         seed="0"
         result="result4"
         in="fbSourceGraphic" />
      <feDisplacementMap
         id="feDisplacementMap4091"
         in2="result4"
         in="fbSourceGraphic"
         yChannelSelector="G"
         xChannelSelector="R"
         scale="10"
         result="result3" />
      <feDiffuseLighting
         id="feDiffuseLighting4093"
         lighting-color="rgb(233,230,215)"
         diffuseConstant="1"
         surfaceScale="2"
         result="result1"
         in="result4">
        <feDistantLight
           id="feDistantLight4095"
           azimuth="235"
           elevation="40" />
      </feDiffuseLighting>
      <feComposite
         id="feComposite4097"
         in2="result1"
         operator="in"
         in="result3"
         result="result2" />
      <feComposite
         id="feComposite4099"
         in2="result1"
         result="result5"
         operator="arithmetic"
         k1="1.7" />
      <feBlend
         id="feBlend4101"
         in2="result3"
         in="result5"
         mode="normal" />
    </filter>
    <filter
       id="filter5765"
       inkscape:label="Crumpled plastic"
       inkscape:menu="Textures"
       inkscape:menu-tooltip="Crumpled matte plastic, with melted edge"
       color-interpolation-filters="sRGB">
      <feTurbulence
         id="feTurbulence5767"
         numOctaves="2"
         seed="0"
         type="turbulence"
         baseFrequency="0.08"
         result="result91" />
      <feDisplacementMap
         id="feDisplacementMap5769"
         in2="result91"
         result="fbSourceGraphic"
         scale="10"
         yChannelSelector="G"
         xChannelSelector="R"
         in="SourceGraphic" />
      <feGaussianBlur
         id="feGaussianBlur5771"
         result="result0"
         in="fbSourceGraphic"
         stdDeviation="0.5" />
      <feTurbulence
         id="feTurbulence5773"
         baseFrequency="0.01"
         seed="488"
         numOctaves="8"
         result="result1" />
      <feComposite
         id="feComposite5775"
         in2="result1"
         result="result2"
         operator="in"
         in="result0" />
      <feSpecularLighting
         id="feSpecularLighting5777"
         surfaceScale="1.5"
         result="result4"
         specularConstant="1"
         specularExponent="30"
         in="result2">
        <feDistantLight
           id="feDistantLight5779"
           elevation="70"
           azimuth="235" />
      </feSpecularLighting>
      <feComposite
         id="feComposite5781"
         in2="result2"
         in="result4"
         operator="atop"
         result="result5" />
      <feBlend
         id="feBlend5783"
         in2="result5"
         mode="multiply"
         result="result6" />
      <feBlend
         id="feBlend5785"
         in2="result6"
         mode="screen"
         in="result6" />
    </filter>
    <filter
       id="filter6386"
       inkscape:label="Matte jelly"
       x="0"
       y="0"
       width="1"
       height="1"
       inkscape:menu="ABCs"
       inkscape:menu-tooltip="Bulging, matte jelly covering"
       color-interpolation-filters="sRGB">
      <feColorMatrix
         id="feColorMatrix6388"
         values="1 0 0 0 0 0 1 0 0 0 0 0 1 0 0 0 0 0 0.85 0"
         result="result0"
         in="SourceGraphic" />
      <feGaussianBlur
         id="feGaussianBlur6390"
         in="SourceAlpha"
         stdDeviation="7" />
      <feSpecularLighting
         id="feSpecularLighting6392"
         surfaceScale="5"
         specularConstant="0.9"
         specularExponent="25"
         result="result1">
        <feDistantLight
           id="feDistantLight6394"
           elevation="60"
           azimuth="225" />
      </feSpecularLighting>
      <feComposite
         id="feComposite6396"
         in2="result0"
         operator="atop" />
    </filter>
  </defs>
  <sodipodi:namedview
     id="base"
     pagecolor="#ffffff"
     bordercolor="#666666"
     borderopacity="1.0"
     inkscape:pageopacity="0.0"
     inkscape:pageshadow="2"
     inkscape:zoom="1"
     inkscape:cx="179.53903"
     inkscape:cy="568.47485"
     inkscape:document-units="px"
     inkscape:current-layer="layer1"
     showgrid="false"
     inkscape:window-width="1608"
     inkscape:window-height="1116"
     inkscape:window-x="2167"
     inkscape:window-y="123"
     inkscape:window-maximized="0" />
  <metadata
     id="metadata7">
    <rdf:RDF>
      <cc:Work
         rdf:about="">
        <dc:format>image/svg+xml</dc:format>
        <dc:type
           rdf:resource="http://purl.org/dc/dcmitype/StillImage" />
        <dc:title></dc:title>
      </cc:Work>
    </rdf:RDF>
  </metadata>
  <g
     inkscape:label="Layer 1"
     inkscape:groupmode="layer"
     id="layer1">
    <g
       id="g5718"
       style="fill:#008080;filter:url(#filter5765)"
       inkscape:export-filename="/home/clinstid/src/shapemonster/trianglemonster.png"
       inkscape:export-xdpi="180.67999"
       inkscape:export-ydpi="180.67999">
      <a
         id="a5715"
         style="fill:#008080">
        <path
           style="fill:#008080;fill-opacity:1;stroke:none"
           id="path5711"
           d="m 170.23562,388.38927 c 0.56784,-1.74336 0.8868,-3.55077 1.24351,-5.34515 0.16108,-0.94791 0.38759,-1.88326 0.64109,-2.81026 0.0579,-0.40351 0.31738,0.42477 -0.0579,-0.2429 -0.20948,-0.52776 0.166,-1.00731 0.33739,-1.5014 0.37022,-1.0554 0.63839,-2.14049 0.89159,-3.22857 0.29949,-1.36318 0.66563,-2.70748 1.08653,-4.03783 0.40008,-1.09087 0.56582,-2.24036 0.79057,-3.37421 0.22346,-1.07542 0.24315,-2.17453 0.43853,-3.2537 0.31358,-1.18045 0.68172,-2.3459 0.97607,-3.53145 0.34723,-1.30192 0.67675,-2.60731 0.97477,-3.92153 0.0509,-0.24799 0.1812,-0.86188 0.22057,-1.12814 0.0544,-0.36768 -0.0958,-0.67232 0.13331,-0.22099 5.61136,-4.23413 5.33626,-3.57014 4.05042,-1.87293 -0.12201,0.16052 -0.2341,0.32036 -0.40451,0.43149 -0.0292,0.0724 -0.0674,0.1417 -0.0875,0.21708 -0.0259,0.0971 -0.13472,0.79159 -0.14163,0.82648 -0.11244,0.56821 -0.30274,1.11209 -0.47946,1.66241 -0.43375,1.37234 -0.52964,2.81354 -0.60167,4.24147 -0.0518,1.39782 -0.0487,2.79671 -0.0461,4.19522 0.0552,1.35404 -0.0856,2.70052 -0.19738,4.04756 -0.10358,1.24483 -0.12352,2.49406 -0.14369,3.74232 -0.01,1.44574 -0.17279,2.88465 -0.26327,4.32677 -0.14069,1.28891 -0.30384,2.57329 -0.38426,3.86789 -0.14824,1.27636 -0.29127,2.5513 -0.36511,3.83448 -0.0763,1.18603 -0.13793,2.36831 -0.10251,3.55703 0.0173,0.24475 -0.0114,0.53364 0.1021,0.76463 0.003,0.007 0.0423,-0.36876 -0.0929,-0.30245 -1.49965,0.73564 -2.9171,1.62819 -4.37565,2.44228 0.57726,-0.77041 0.68943,-1.80276 0.8612,-2.72804 0.17653,-1.31161 0.75869,-2.50015 1.25011,-3.7121 0.53367,-1.37058 1.20497,-2.68151 1.84439,-4.0046 0.68646,-1.33386 1.29008,-2.70492 1.90172,-4.07368 0.56858,-1.24554 1.18572,-2.46792 1.79348,-3.69464 0.65705,-1.33651 1.45809,-2.58961 2.10801,-3.93018 0.61158,-1.23515 1.23068,-2.46468 1.82324,-3.70914 0.59186,-1.09111 1.00403,-2.26237 1.43146,-3.42395 0.41122,-1.17274 0.89129,-2.32004 1.39848,-3.45408 0.25603,-0.83213 0.64249,-1.65466 0.76612,-2.5233 0.002,-0.0165 -0.001,-0.0643 0.006,-0.0495 0.0476,0.0949 0.0902,0.19344 0.11761,0.29601 0.0132,0.0494 -0.0424,0.17757 0.003,0.15334 6.85153,-3.6889 5.47639,-3.50978 4.06288,-2.23515 -0.60713,0.76638 -1.05657,1.63821 -1.49361,2.50812 -0.52558,1.25007 -1.04576,2.50337 -1.54724,3.76361 -0.52286,1.21217 -0.9016,2.47749 -1.32331,3.72664 -0.38497,1.35944 -0.70127,2.73605 -1.07169,4.09967 -0.3656,1.28135 -0.78727,2.54525 -1.05468,3.85182 -0.15905,1.18328 -0.46146,2.34018 -0.74827,3.4974 -0.28776,1.15369 -0.55328,2.31309 -0.7369,3.48821 -0.14943,1.22898 -0.33436,2.45234 -0.44903,3.68539 -0.0592,0.8154 -0.0671,1.63014 -0.18601,2.43976 -0.0701,0.36148 -0.0976,0.72719 -0.0746,1.09447 0.006,0.0878 0.0213,0.31297 0.0831,0.25042 0.96975,-2.06042 -4.84097,4.38788 -4.31126,2.14378 0.11852,-0.44898 0.36605,-0.83525 0.65439,-1.19213 0.51921,-0.73038 0.92466,-1.53371 1.44391,-2.26987 0.75144,-1.03037 1.33956,-2.17346 1.95056,-3.29119 0.62242,-1.13171 1.33545,-2.21234 1.85569,-3.39655 0.62144,-1.39169 1.22107,-2.79068 1.7778,-4.20947 0.55102,-1.2931 1.07054,-2.5986 1.64101,-3.8834 0.61327,-1.2579 1.05211,-2.58935 1.51241,-3.90815 0.47664,-1.22951 0.90837,-2.4732 1.31951,-3.72607 0.35144,-1.16057 0.73853,-2.30736 1.16577,-3.44186 1.17195,-2.98756 -0.71015,-0.86909 5.08985,-3.53736 -0.32603,0.47046 -0.66826,0.90307 -0.86544,1.44414 -0.37814,1.26334 -0.55631,2.57505 -0.79059,3.87002 -0.33387,1.59393 -0.67173,3.18751 -0.97872,4.78691 -0.23255,1.23919 -0.40461,2.48756 -0.601,3.7324 -0.17165,1.15282 -0.42212,2.29153 -0.59827,3.44344 -0.14005,1.17878 -0.3314,2.34938 -0.44347,3.5315 -0.0423,1.19642 -0.20101,2.38225 -0.3187,3.57242 -0.10557,1.18817 -0.12731,2.38117 -0.14296,3.57319 0.13982,0.95054 -0.27765,1.99995 0.0216,2.92531 -8.98489,4.15822 -4.47428,3.48615 -4.32487,1.59925 0.0289,-0.36457 -0.0282,-0.53765 -0.0932,-0.90229 -0.27717,-1.08198 -0.527,-2.17076 -0.73975,-3.26731 -0.22528,-1.11897 -0.54003,-2.21539 -0.77648,-3.33178 -0.0372,-0.12785 -0.0651,-0.25879 -0.11168,-0.38355 -0.0326,-0.0875 -0.15772,-0.31893 -0.16559,-0.2259 -0.15503,1.83197 5.76526,-3.89727 4.42147,-2.12029 -0.50824,0.91637 -0.57135,2.04778 -0.72607,3.06773 -0.18915,1.56245 -0.41577,3.11963 -0.58455,4.68454 -0.21399,-0.32795 0.0861,0.49994 0.004,0.3964 -0.0607,-0.0766 -0.0306,-0.30836 -0.11951,-0.26779 -5.63705,2.57147 -4.84224,3.96879 -4.35979,1.7683 0.079,-0.93855 -0.0993,-1.88989 -0.32914,-2.79776 -0.14681,-0.20391 -0.0803,-0.61663 -0.25561,-0.80821 -0.028,-0.0306 0.002,0.0831 0.007,0.12427 0.008,0.0693 -0.0288,0.23942 0.0327,0.20664 1.5237,-0.8112 2.9832,-1.7376 4.4748,-2.60641 0.008,0.79138 0.55232,1.49931 0.97459,2.13179 0.57539,0.81401 1.18791,1.59686 2.07737,2.07351 0.50221,0.31286 0.84117,0.44553 1.36367,0.12363 0.13019,-0.0802 0.5144,-0.33021 0.38089,-0.25567 -1.37843,0.76965 -2.74457,1.56109 -4.11686,2.34164 0.78427,-0.54496 1.4964,-1.17771 2.11764,-1.90162 0.78131,-0.88902 1.46724,-1.84438 2.0493,-2.87328 0.56188,-1.02294 0.81575,-2.17637 1.10251,-3.29824 0.28221,-1.28141 0.43205,-2.59019 0.594,-3.89167 0.15451,-1.41239 0.17891,-2.83232 0.3125,-4.24648 0.10422,-1.33925 0.2679,-2.67254 0.48797,-3.99755 0.29635,-1.34481 0.59271,-2.68957 0.92345,-4.02643 0.29539,-1.29908 0.58983,-2.59835 0.89051,-3.89634 0.28137,-1.28939 0.49774,-2.59306 0.8212,-3.8727 0.1269,-0.53945 0.31234,-1.0865 0.2986,-1.64886 -7.4e-4,-0.0304 -0.036,-0.11539 -0.0324,-0.0852 0.0101,0.0865 -0.026,0.29382 0.0524,0.2559 1.53883,-0.74452 3.0004,-1.63916 4.50059,-2.45874 -0.49255,1.16052 -0.63914,2.46763 -0.89229,3.70176 -0.31423,1.54236 -0.54795,3.10123 -0.75182,4.66176 -0.14295,1.7497 -0.32155,3.49325 -0.5609,5.23255 -0.3169,1.70795 -0.54551,3.42671 -0.67227,5.15876 -0.0964,1.32645 -0.3257,2.63464 -0.53169,3.94645 -0.19418,1.30074 -0.23138,2.6167 -0.26341,3.92922 -0.0267,1.19003 -0.0126,2.38017 8.3e-4,3.57022 0.004,0.55404 -0.006,1.10854 0.0185,1.66223 -0.007,0.0991 0.0704,0.20446 0.0485,0.29625 -0.0104,0.0434 -0.092,0.0282 -0.11685,0.0653 -0.0307,0.0457 -0.11177,0.3762 -0.12501,0.42718 -0.0239,0.7722 -0.60269,-0.0219 -0.0215,-0.38 0.0266,-0.0164 0.0493,-0.0422 0.0797,-0.0493 0.16204,-0.0381 0.34659,0.0338 0.51036,8.2e-4 0.16594,-0.0334 0.32048,-0.11019 0.48444,-0.15221 0.6983,-0.17228 1.42252,-0.12732 2.12433,-0.2602 0.45842,-0.1778 1.03314,-0.0593 1.48479,-0.24648 0.0601,-0.0249 0.19929,-0.16547 0.14251,-0.1336 -1.47529,0.82806 -2.93519,1.68323 -4.40279,2.52484 0.56998,-0.62486 0.60653,-1.49467 0.72809,-2.29007 0.20597,-1.22982 0.28293,-2.47433 0.4508,-3.70903 0.16246,-1.42547 0.32191,-2.85155 0.53216,-4.27104 0.19593,-1.37 0.52109,-2.71802 0.87924,-4.05351 0.33976,-1.18066 0.52237,-2.39702 0.80652,-3.59111 0.26252,-1.1296 0.5268,-2.25828 0.77443,-3.39129 0.35324,-1.29175 0.67886,-2.58991 1.00845,-3.88763 0.29056,-1.27786 0.71739,-2.51847 1.05451,-3.78331 0.34551,-2.03329 -0.57164,-0.50227 4.62843,-2.63218 0.12557,-0.0514 -0.1408,0.2324 -0.20055,0.35423 -0.0717,0.14614 -0.12874,0.29901 -0.19311,0.44851 -0.44867,1.185 -0.78949,2.409 -1.06067,3.64577 -0.31698,1.41876 -0.60399,2.84314 -0.88528,4.26921 -0.28814,1.28194 -0.41228,2.59036 -0.59203,3.88967 -0.14852,1.29692 -0.29015,2.59398 -0.4416,3.89079 -0.0961,1.33614 -0.2751,2.66321 -0.41882,3.99456 -0.12383,1.32012 -0.30793,2.63239 -0.41165,3.95473 -0.0849,1.16314 -0.0967,2.32969 -0.10717,3.49533 -0.0437,0.036 0.0351,2.02972 0.24576,1.46242 0.54191,-1.71379 -0.0132,0.12006 -4.39252,2.37193 -0.097,0.0499 0.1143,-0.18594 0.16673,-0.2816 0.0604,-0.11022 0.12219,-0.22019 0.17158,-0.33576 0.11715,-0.27413 0.22124,-0.65343 0.305,-0.9319 0.41075,-1.28815 0.76928,-2.59205 1.12183,-3.89709 0.3812,-1.28437 0.81819,-2.55051 1.28298,-3.80675 0.46604,-1.19433 0.99804,-2.3623 1.51079,-3.53757 0.45969,-1.13524 1.06579,-2.20105 1.58201,-3.30967 0.56725,-1.2564 1.05503,-2.54558 1.58295,-3.81842 0.52435,-1.16727 1.13536,-2.2933 1.69612,-3.44332 0.51137,-1.05609 0.97672,-2.13312 1.3747,-3.23696 0.0451,0.17636 0.18202,-0.69151 0.2046,-0.63047 0.0948,0.2563 0.07,0.36268 0.0706,0.36237 1.48898,-0.78198 2.93075,-1.65075 4.39612,-2.47613 -0.48116,0.71466 -0.61241,1.60813 -0.80356,2.43349 -0.2982,1.15461 -0.54112,2.31895 -0.75945,3.49077 -0.3041,1.49502 -0.51055,3.00424 -0.72809,4.51317 -0.20286,1.48175 -0.38487,2.96607 -0.57385,4.44983 -0.23327,1.38057 -0.4014,2.77016 -0.6128,4.15396 -0.20014,1.21163 -0.27631,2.4366 -0.31902,3.66219 -0.0235,0.63419 -0.01,1.28647 -0.0103,1.91217 -0.46975,-1.86505 0.95411,-0.77077 -4.52099,2.20118 -0.0481,0.0261 0.0884,-0.0646 0.13144,-0.0984 0.20337,-0.15937 0.13141,-0.0937 0.29504,-0.2997 0.34272,-0.49294 0.67229,-0.99276 1.021,-1.48529 0.68454,-1.04803 1.21776,-2.17731 1.65413,-3.34767 0.49684,-1.33361 1.01481,-2.65709 1.48907,-3.99927 0.57174,-1.52472 1.14012,-3.05122 1.73807,-4.56592 0.4468,-1.21718 0.97549,-2.40138 1.44616,-3.60909 0.41131,-1.17579 0.97334,-2.28897 1.40946,-3.45473 0.38565,-1.2967 0.947,-2.52487 1.51557,-3.74842 0.6379,-1.20036 1.19454,-2.43409 1.66791,-3.70783 0.17335,-0.53578 0.33767,-1.07857 0.44446,-1.63241 0.0552,-0.28623 0.0358,-0.42466 0.0379,-0.42476 0.0541,-0.003 0.0405,0.10047 0.0608,0.15071 8.0759,-4.10546 4.87454,-3.68923 4.37946,-1.75234 -0.14166,0.55424 -0.17642,1.14301 -0.24725,1.70837 -0.19164,1.70129 -0.34794,3.40635 -0.51886,5.11006 -0.10536,1.44679 -0.25679,2.88953 -0.4669,4.32491 -0.22814,1.46356 -0.42494,2.93236 -0.67766,4.39198 -0.22353,1.31318 -0.4631,2.62149 -0.76452,3.91916 -0.23929,1.24914 -0.55928,2.47469 -0.93172,3.68963 -0.31926,1.18518 -0.57452,2.38668 -0.8642,3.5796 -0.21401,0.97541 -0.40974,1.95508 -0.62714,2.92973 -5.93803,2.58731 -4.86058,3.15165 -4.13966,0.0642 0.22939,-1.42545 0.47077,-2.84792 0.75983,-4.2626 0.29596,-1.54066 0.49448,-3.09813 0.72507,-4.64978 0.16552,-1.00521 0.22475,-2.02183 0.24623,-3.03891 8.9e-4,-0.12141 0.0198,-0.47121 -0.0237,-0.62737 -0.0216,-0.0777 -0.22257,0.30936 -0.13429,0.26268 1.49302,-0.78964 2.94175,-1.66033 4.41263,-2.4905 -0.69522,0.93123 -0.98355,2.12843 -1.35454,3.21834 -0.44022,1.37352 -0.73344,2.78655 -1.0866,4.18332 -0.33771,1.13752 -0.51987,2.30203 -0.60406,3.48283 -0.007,0.14647 -0.0154,0.29288 -0.0215,0.43939 -0.005,0.11294 -0.0123,0.2259 -0.0109,0.33892 8.3e-4,0.0672 0.0885,0.17109 0.0277,0.19965 -4.65883,2.18827 -5.6981,3.36529 -4.29346,1.8662 0.66729,-0.87279 1.29375,-1.77473 1.90542,-2.68704 0.67124,-1.1013 1.51518,-2.07135 2.34756,-3.04977 0.61843,-0.78085 1.32047,-1.50776 1.84246,-2.36069 4.92743,-2.33217 5.01947,-3.63654 4.78682,-1.18223 -0.0552,0.58222 -0.0962,1.16385 -0.13037,1.74767 -0.0313,1.39128 -0.1551,2.77824 -0.32959,4.15837 -0.17854,1.17058 -0.30776,2.34751 -0.39785,3.52798 -0.14416,2.11106 5.14346,-1.42903 -4.77638,2.38204 -0.1206,0.0463 0.0615,-0.34405 0.28879,-0.8201 0.56366,-1.11148 0.94311,-2.30211 1.29414,-3.49407 0.29629,-1.26149 0.63028,-2.50979 1.02495,-3.74381 0.40706,-1.24135 0.78265,-2.49277 1.15383,-3.74526 0.39841,-1.264 0.84407,-2.51061 1.22841,-3.77946 0.41677,-1.29949 0.75,-2.62258 1.11292,-3.93746 0.37168,-1.27809 0.83703,-2.52449 1.30758,-3.76854 0.41473,-1.11311 0.80778,-2.23488 1.13771,-3.37627 0.0726,0.006 0.15994,-0.81961 0.23559,-0.87757 0.0308,-0.0236 0.0121,0.12076 0.0479,0.10592 1.55989,-0.64691 3.05117,-1.45877 4.63393,-2.04751 0.13588,-0.0505 -0.12413,0.26205 -0.18619,0.39307 -0.49413,1.34625 -0.76797,2.7675 -1.07563,4.16596 -0.35214,1.66568 -0.67891,3.33614 -1.00531,5.007 -0.20089,1.30613 -0.43149,2.60532 -0.69934,3.89942 -0.22459,1.27075 -0.38709,2.55239 -0.55848,3.83151 -0.10462,1.22004 -0.29288,2.42998 -0.42742,3.64663 -0.11578,1.11084 -0.14219,2.22804 -0.15543,3.34396 0.0362,1.00667 -0.069,2.00478 -0.195,3.00148 -0.26293,2.04228 -0.29319,0.59698 -4.78066,2.43197 -0.0609,0.0249 0.0778,-0.10622 0.12024,-0.15649 0.31302,-0.37091 0.0183,0.0278 0.33619,-0.42593 0.44691,-0.91466 0.76127,-1.89017 1.0681,-2.85908 0.39811,-1.3496 1.0492,-2.60526 1.58623,-3.9025 0.46612,-1.14833 0.95722,-2.28522 1.5031,-3.39788 0.62371,-1.22234 1.15204,-2.49419 1.57472,-3.79943 0.35915,-1.1763 0.79954,-2.32541 1.20847,-3.48491 0.0779,-0.37031 0.42171,-0.82185 0.30976,-1.22772 -0.004,-0.0149 -0.022,0.0266 -0.0199,0.0419 0.015,0.10797 0.0468,0.21295 0.0702,0.31942 6.7549,-4.06994 4.88293,-3.65252 3.9167,-1.7372 -0.28232,0.55964 -0.49724,1.14856 -0.71351,1.7356 -0.46258,1.19788 -0.77805,2.44529 -1.04293,3.69978 -0.23174,1.27726 -0.43051,2.55973 -0.64862,3.83931 -0.28812,1.30811 -0.51494,2.62427 -0.63474,3.95834 -0.0441,0.62834 -0.0693,1.25804 -0.0839,1.88773 -0.013,1.03597 -0.0123,2.07212 -0.0102,3.10816 -0.2081,0.20024 0.46431,2.13427 0.2516,1.12211 -7.40267,4.41573 -4.84611,3.75555 -4.08319,1.9166 0.63801,-0.4808 1.05005,-1.25227 1.47651,-1.91882 0.6051,-0.94862 1.2406,-1.87548 1.83507,-2.83148 0.66853,-1.15259 1.54691,-2.16007 2.35982,-3.20995 0.80838,-1.1092 1.5193,-2.28576 2.25337,-3.44462 0.72217,-1.09222 1.30845,-2.26201 1.93338,-3.41001 0.59682,-1.15178 1.06055,-2.36651 1.56354,-3.56087 0.45242,-0.73549 0.59625,-1.75754 1.03773,-2.48405 1.20582,1.90404 -0.7171,0.94264 4.72714,-2.03552 0.0714,-0.0391 -0.12352,0.10725 -0.17504,0.17027 -0.21668,0.26503 -0.25428,0.38419 -0.41355,0.6974 -0.44062,1.2755 -0.79486,2.58044 -1.18789,3.87168 -0.3444,1.41211 -0.84278,2.77484 -1.3389,4.13823 -0.40992,1.21279 -0.95589,2.37195 -1.40819,3.56839 -0.35928,1.23426 -0.76338,2.45466 -1.1414,3.68312 -0.40298,1.30449 -0.74882,2.62573 -1.10792,3.94277 -0.34522,1.04947 -0.60257,2.11807 -0.75605,3.21148 -0.26697,2.27176 0.41978,0.70575 -4.824,2.75296 -0.0976,0.0381 0.0432,-0.20575 0.0783,-0.3045 0.0437,-0.12289 0.10481,-0.23886 0.15722,-0.35829 0.56712,-1.00213 1.02284,-2.05729 1.43551,-3.13044 0.48781,-1.265 1.00382,-2.5182 1.5923,-3.73977 0.49425,-1.24943 1.28862,-2.30133 2.12719,-3.33271 0.79935,-0.92249 1.41308,-1.98262 2.05308,-3.01671 0.70334,-1.10554 1.379,-2.22823 2.07707,-3.33707 0.68855,-1.06117 1.48614,-2.04435 2.19829,-3.08906 0.6086,-0.96876 1.2743,-1.898 1.93468,-2.83151 1.10459,-1.68737 0.8965,-0.73185 4.94517,-2.4494 0.0863,-0.0366 -0.14349,0.12109 -0.2098,0.1874 -0.0849,0.0849 -0.16224,0.17715 -0.24335,0.26573 -0.68476,0.9846 -1.11023,2.1304 -1.6079,3.21725 -0.65967,1.37221 -1.19171,2.80034 -1.71635,4.22804 -0.49205,1.23348 -0.91799,2.49066 -1.39725,3.72922 -0.47005,1.08397 -0.88009,2.19182 -1.31344,3.29063 -0.47577,1.18479 -0.75325,2.43407 -1.11365,3.65651 -0.38773,1.21527 -0.76566,2.42769 -1.05476,3.67064 -0.19814,0.82489 -0.44832,1.6343 -0.63137,2.4631 -0.10955,0.36194 -0.10696,0.74881 -0.1646,1.1166 -0.007,0.0477 -0.0298,-0.0918 -0.0457,-0.13742 -5.74843,5.94783 -5.43296,2.89931 -3.83249,1.54959 0.83252,-0.76025 1.44943,-1.71342 2.15969,-2.58156 0.89968,-1.02407 1.66249,-2.15185 2.46024,-3.25355 0.92937,-1.18035 1.68665,-2.46114 2.27147,-3.8422 0.49254,-1.35187 1.14818,-2.63426 1.6257,-3.99155 0.30998,-1.13976 0.65847,-2.26771 0.9815,-3.40375 0.29558,-1.30847 0.74574,-2.56889 1.19691,-3.82937 0.20751,-0.49781 0.3915,-1.0046 0.56591,-1.51473 0.0507,-0.14827 0.10705,-0.32952 0.1198,-0.32362 0.0369,0.0171 0.0354,0.0733 0.0532,0.1099 0.78827,1.94869 -0.0181,0.33219 4.48429,-2.08387 0.10051,-0.0539 -0.14781,0.17487 -0.20786,0.27186 -0.274,0.4425 -0.45314,0.95114 -0.64031,1.43314 -0.39525,1.25832 -0.59299,2.56822 -0.83769,3.86159 -0.24147,1.26478 -0.43542,2.53925 -0.61481,3.81435 -0.11735,1.23965 -0.26348,2.47549 -0.47315,3.70321 -0.18266,1.12457 -0.43404,2.23311 -0.72765,3.33329 -0.29771,1.07166 -0.67736,2.11733 -1.02046,3.17469 -0.29078,1.09684 -0.65616,2.17067 -0.98179,3.25734 -0.34063,1.20379 -0.57565,2.43501 -0.76624,3.67062 -0.31236,2.02503 -0.29871,0.68375 -4.68189,2.54564 -0.21964,0.0933 0.31558,-0.35827 0.46451,-0.54472 0.58252,-0.8825 0.98865,-1.88012 1.33105,-2.8775 0.36113,-1.26702 0.78147,-2.51201 1.20484,-3.75916 0.38912,-1.25787 0.7159,-2.53352 1.09203,-3.79516 0.27905,-1.11748 0.74301,-2.16903 1.206,-3.21888 0.1733,-0.56548 0.0872,-0.1271 0.19513,-0.17576 1.55335,-0.70053 3.04987,-1.5245 4.61292,-2.20311 0.0951,-0.0413 -0.11413,0.1742 -0.1571,0.2686 -0.055,0.12078 -0.0904,0.24955 -0.13557,0.37433 -0.28062,1.02258 -0.27263,2.09036 -0.36065,3.13928 -0.10749,1.27088 -0.2745,2.53344 -0.44365,3.79707 -0.15627,1.21479 -0.1863,2.43862 -0.32406,3.65521 -0.17042,1.12871 -0.20805,2.26158 -0.19657,3.39995 0.001,0.70284 -0.0288,1.40518 -0.0517,2.10752 -0.007,0.27898 -0.0267,0.40768 0.0168,0.6657 0.007,0.0429 0.0479,0.16713 0.039,0.12455 -0.46047,-2.19206 -6.11499,3.66762 -4.3123,1.92136 0.72267,-1.16751 1.2617,-2.43654 1.89222,-3.65477 0.77559,-1.50658 1.33621,-3.10843 1.88755,-4.70667 0.62132,-1.70788 1.16265,-3.44448 1.84678,-5.12877 0.47055,-1.34885 1.0917,-2.63316 1.66588,-3.93829 0.49711,-1.19772 1.10417,-2.34684 1.77544,-3.45518 0.6429,-1.04439 1.32503,-2.06314 1.9941,-3.09065 0.0977,-0.14366 0.19701,-0.28626 0.29316,-0.43097 0.0751,-0.11304 0.1486,-0.22717 0.2206,-0.34221 0.0458,-0.0731 0.0933,-0.14548 0.13269,-0.22227 0.0153,-0.0299 -7.5e-4,-0.0838 0.0305,-0.0961 4.91643,-1.94364 5.49952,-3.27777 4.54521,-1.42224 -0.59906,1.40403 -0.95182,2.90106 -1.30164,4.38262 -0.51499,2.04855 -0.95691,4.11446 -1.45175,6.16772 -0.40047,1.5105 -0.5732,3.06606 -0.87666,4.59641 -0.34045,1.37049 -0.69788,2.73658 -1.04997,4.10411 -0.36696,1.22092 -0.8385,2.40834 -1.27157,3.60725 -0.22019,0.94093 -0.7615,1.8588 -0.80855,2.83745 0.20121,-1.9427 -3.63789,1.75726 -4.35115,2.13625 -0.0979,0.052 0.15765,-0.15707 0.2229,-0.24663 0.0921,-0.12636 0.16479,-0.26574 0.24719,-0.39861 0.59141,-1.07136 1.13026,-2.17556 1.66076,-3.27916 0.52975,-1.24936 1.10316,-2.47843 1.67717,-3.7078 0.52279,-1.18273 1.20844,-2.26347 1.96626,-3.30562 0.60581,-0.88025 1.31823,-1.67548 2.01847,-2.47946 0.4595,-0.56139 0.96135,-1.08261 1.41746,-1.64436 6.48287,-3.06531 5.13034,-2.85676 3.4888,-0.25481 -0.67759,1.17767 -1.3572,2.35399 -2.02899,3.53504 -0.67763,1.13572 -1.25808,2.32929 -1.74504,3.55834 -0.43396,1.07456 -0.74075,2.19495 -0.99805,3.32325 -0.1529,0.10894 -0.11727,1.17766 -0.24269,1.27668 -0.02,0.0158 -0.0259,-0.044 -0.0388,-0.0659 -0.004,-0.0235 -0.0359,-0.0621 -0.0135,-0.0705 0.27277,-0.10211 0.46162,1.12659 0.47348,1.29072 -0.0817,0.59747 0.21972,1.07399 0.3579,1.6345 0.25003,0.7847 -0.0213,1.85802 0.30059,2.59701 -0.32935,-1.75077 0.0607,0.10514 -4.45578,2.07912 -0.14305,0.0625 0.18859,-0.24949 0.26982,-0.38282 0.33903,-0.55652 0.59026,-1.17353 0.85491,-1.76662 0.58272,-1.30634 0.88525,-2.70996 1.38731,-4.04302 0.083,-0.19766 0.1646,-0.39592 0.24898,-0.59299 0.0688,-0.16067 0.14411,-0.31854 0.21052,-0.4802 0.0373,-0.0907 0.0693,-0.18358 0.1004,-0.27662 0.0124,-0.037 -0.006,-0.0968 0.0298,-0.11312 4.87826,-2.24905 5.32682,-3.6775 4.59475,-1.74116 -0.37729,1.46114 -0.38726,2.9913 -0.43287,4.49148 0.0525,1.43152 -0.17648,2.89935 0.0465,4.32032 0.0609,0.27312 0.16247,0.50059 0.38575,0.67343 0.0395,0.0306 0.0785,0.0764 0.12842,0.0774 0.0315,6.4e-4 0.087,-0.088 0.059,-0.0737 -1.48546,0.76297 -2.95909,1.54878 -4.43863,2.32316 0.70735,-0.80353 1.34048,-1.67225 1.95681,-2.54674 0.96803,-1.29936 1.81591,-2.67738 2.64686,-4.06619 0.31034,-0.5512 0.6848,-1.05904 1.07102,-1.55795 0.0728,-0.094 0.14631,-0.18748 0.21839,-0.28203 0.0342,-0.0449 0.0465,-0.15269 0.10047,-0.13622 0.0682,0.0208 0.0598,0.12952 0.0898,0.19428 7.61621,-3.5808 4.86575,-3.28854 4.16604,-1.35503 -0.18231,0.50378 -0.24344,1.04537 -0.33163,1.57043 -0.30478,1.56957 -0.66385,3.12773 -0.97546,4.69588 -0.34249,1.67549 -0.6776,3.35438 -1.15157,4.99862 -0.10103,0.19403 -0.10359,0.42939 -0.2004,0.62591 -0.031,0.063 -0.0791,-0.12179 -0.0875,-0.19146 -0.009,-0.075 0.0709,-0.26114 0.004,-0.2266 -1.48245,0.76217 -2.90162,1.6416 -4.35242,2.46239 0.6698,-0.41957 0.54062,-1.37639 0.49078,-2.05724 -0.20151,-1.12924 -0.56933,-2.21538 -0.77102,-3.34667 -0.2672,-1.24615 -0.42382,-2.51042 -0.58627,-3.77333 -0.21653,-1.63584 -0.21693,-3.28827 -0.3481,-4.93027 -0.1168,-1.32 -0.28725,-2.63257 -0.45661,-3.94652 -0.23256,-1.38904 0.0509,-2.77497 0.22319,-4.15245 -0.0351,-0.55643 0.71128,-2.31044 0.34927,-2.73143 3e-4,0.0193 0.009,0.0753 8.9e-4,0.0579 -0.0525,-0.11002 -0.1204,-0.21874 -0.13547,-0.33972 -0.0156,-0.12546 0.46623,-1.06832 0.52932,-1.21509 0.18717,-0.55006 0.45636,-1.07881 0.59316,-1.64582 0.01,-0.0408 -0.015,-0.15399 0.0155,-0.12506 0.0544,0.0517 0.0506,0.14125 0.0759,0.21187 7.55073,-3.97848 5.09833,-3.3885 3.98862,-1.62403 -0.4652,0.73966 -0.89113,1.50764 -1.34051,2.25702 -1.22471,1.98843 -2.44395,3.97966 -3.68555,5.95765 -0.85682,1.39292 -1.82605,2.71194 -2.68751,4.1015 -0.0785,0.33698 -0.97216,1.28562 -0.92674,1.59827 0,0 -4.98605,1.95165 -4.98605,1.95165 l 0,0 c 0.10158,0.10664 0.18157,-0.0684 0.25364,-0.15765 0.31651,-0.39213 0.56481,-0.82602 0.82899,-1.25437 0.8449,-1.42205 1.85405,-2.7351 2.73779,-4.13287 1.24144,-1.97032 2.46485,-3.95035 3.67511,-5.93988 0.44025,-0.74016 0.87981,-1.48007 1.29148,-2.23667 0.0234,-0.0431 0.41215,-0.79998 0.46497,-0.83087 1.58902,-0.92929 3.2396,-1.74906 4.8594,-2.62358 0.0624,0.0899 0.1447,0.16878 0.18717,0.26961 0.26346,0.62548 -0.44223,1.39866 -0.53285,1.99019 -0.0238,0.0691 -0.39517,1.19042 -0.5174,1.13725 -0.0822,-0.0357 -0.10902,-0.14242 -0.16798,-0.20992 -0.0362,-0.0415 0.0664,0.0878 0.0997,0.1317 0.50577,0.96065 -0.13305,2.0769 -0.24211,3.06468 -0.15846,1.33853 -0.47739,2.68453 -0.27889,4.0347 0.16357,1.32318 0.36072,2.64043 0.45971,3.97107 0.13672,1.63361 0.10795,3.28005 0.33484,4.90734 0.17126,1.25271 0.33019,2.50867 0.59559,3.74582 0.18851,1.14916 0.54788,2.2483 0.79844,3.38243 0.0838,0.85439 0.18274,1.77865 -0.22939,2.56779 -1.60485,0.92114 -3.1722,1.91095 -4.81455,2.76344 -0.22285,0.11567 -0.54933,-0.46769 -0.53967,-0.627 0.0133,-0.21934 0.2793,-0.37927 0.24223,-0.61313 0.55036,-1.61652 0.88605,-3.2887 1.21554,-4.96201 0.28874,-1.56166 0.64239,-3.11027 0.95321,-4.66763 0.57601,-3.73381 0.4317,-2.60002 5.57267,-5.16919 0.0416,0.0905 0.11878,0.17215 0.12478,0.27161 0.0226,0.37417 -1.40141,1.55054 -1.45105,2.00818 -0.84246,1.38533 -1.64676,2.7967 -2.6279,4.09205 -0.59642,0.88981 -1.2394,1.74438 -1.88083,2.60127 -2.56336,1.46266 -4.75041,4.57753 -5.72335,1.53775 -0.27022,-1.45205 0.0154,-2.96649 -0.0532,-4.43527 0.0397,-1.53091 0.0533,-3.07693 0.31637,-4.58892 0.49612,-2.15735 0.0233,-0.5479 4.99452,-2.89632 0.0605,-0.0286 0.002,0.13467 -0.01,0.20061 -0.0904,0.51449 -0.4124,0.92158 -0.57015,1.41545 -0.59423,1.2994 -0.81549,2.74241 -1.39447,4.05396 -0.71354,1.71739 -3.39614,8.2187 -6.11326,4.87942 -0.34518,-0.8419 -0.0993,-1.80868 -0.32323,-2.68432 -0.1326,-0.58868 -0.51128,-1.09677 -0.41338,-1.72486 0.006,-0.46928 -0.0436,-0.72262 -0.38933,-1.03181 -0.0337,-0.07 -0.0828,-0.13457 -0.101,-0.2101 -0.066,-0.27374 0.31539,-1.04001 0.27482,-1.32297 0.25987,-1.14704 0.53441,-2.29947 0.97675,-3.39194 0.44715,-1.2655 1.05144,-2.47606 1.71513,-3.64065 0.68635,-1.17201 1.35589,-2.35309 2.01428,-3.54176 1.66698,-2.8455 1.63467,-2.19819 6.16916,-4.18011 -0.0677,0.82362 -0.94993,1.23121 -1.3656,1.87067 -0.66841,0.82572 -1.43455,1.57135 -2.04089,2.44859 -0.7466,1.02941 -1.50189,2.0369 -2.01078,3.21486 -0.57395,1.22864 -1.17631,2.44364 -1.67858,3.70454 -0.49377,1.12737 -1.10365,2.20508 -1.61971,3.32157 -0.0768,0.13559 -0.15954,0.26794 -0.23025,0.40678 -0.0611,0.11992 -0.0519,0.29518 -0.16464,0.36864 -0.44255,0.2883 -4.20841,4.51091 -5.30303,2.3416 -0.13687,-0.97308 0.57124,-2.1069 0.75175,-3.06095 0.43476,-1.18723 0.87709,-2.37257 1.29381,-3.56511 0.36909,-1.35703 0.70098,-2.72443 1.06836,-4.08215 0.33813,-1.53534 0.49055,-3.10449 0.89012,-4.62643 0.53544,-2.04202 0.95196,-4.11368 1.4653,-6.16141 0.33061,-1.4999 0.67771,-3.00276 1.19486,-4.45102 0.8625,-2.13999 0.0142,-0.2973 5.23662,-2.79858 0.0259,-0.0124 -0.0841,-0.0678 -0.26283,0.18574 -0.0838,0.11884 -0.14473,0.2522 -0.21709,0.3783 -0.10052,0.13946 -0.20104,0.27891 -0.30156,0.41836 -0.68073,1.02062 -1.36263,2.03973 -2.00745,3.08377 -0.69887,1.07372 -1.30196,2.21013 -1.81805,3.38266 -0.54299,1.31967 -1.233,2.57715 -1.67619,3.9391 -0.71641,1.67003 -1.26439,3.40107 -1.88579,5.10767 -0.541,1.6144 -1.07508,3.23707 -1.82471,4.76986 -0.65442,1.2083 -1.20851,2.4632 -1.82875,3.68851 -0.98287,2.1951 -5.5341,4.95476 -5.35735,1.81973 0.008,-0.70333 0.0521,-1.4052 0.0779,-2.10797 0.0132,-1.15592 -0.0221,-2.31159 0.17438,-3.45921 0.15451,-1.21858 0.19102,-2.44267 0.32418,-3.66363 0.16967,-1.25744 0.34953,-2.5114 0.45154,-3.77687 0.10984,-1.07174 0.0715,-2.15947 0.2972,-3.21883 0.0319,-0.14295 0.15572,-0.74849 0.20866,-0.77994 1.59057,-0.94518 3.22276,-1.82409 4.89012,-2.62607 0.12518,-0.0602 0.13377,0.42439 0.13305,0.42746 -0.0206,0.089 -0.0807,0.16403 -0.12103,0.24605 -0.5325,0.997 -0.95828,2.06429 -1.25678,3.15477 -0.41032,1.25632 -0.71583,2.54338 -1.09995,3.80796 -0.39942,1.25075 -0.86965,2.47624 -1.19171,3.75112 -0.32101,1.03873 -0.73983,2.05035 -1.24267,3.01291 -1.09302,1.73537 -6.0487,5.25536 -5.41258,2.44083 0.22153,-1.2503 0.42394,-2.50496 0.73688,-3.73688 0.3475,-1.07988 0.68955,-2.16491 0.98048,-3.26107 0.33061,-1.05578 0.71068,-2.09318 1.02986,-3.1523 0.29524,-1.08931 0.58042,-2.17995 0.7487,-3.29793 0.24867,-1.21395 0.37966,-2.45093 0.49504,-3.68369 0.16551,-1.28518 0.36495,-2.56771 0.59987,-3.84158 0.2634,-1.31033 0.45726,-2.63672 0.7958,-3.93105 0.67329,-2.02295 2.97812,-7.18563 5.79817,-4.51896 0.0326,0.0645 0.0797,0.12345 0.098,0.19337 0.0962,0.3692 -0.62203,1.5916 -0.69785,1.96498 -0.45319,1.24735 -0.94001,2.4881 -1.19644,3.79517 -0.34993,1.13504 -0.67952,2.27893 -0.98246,3.42746 -0.45323,1.37924 -1.11767,2.66395 -1.62341,4.02238 -0.54496,1.42556 -1.27162,2.75513 -2.21301,3.96156 -0.81722,1.09231 -1.54139,2.25232 -2.44219,3.28169 -0.7326,0.85519 -1.35331,1.787 -2.09128,2.63721 -0.17413,0.1638 -0.49307,0.33933 -0.63958,0.5056 -0.0466,0.0529 -0.0459,0.14704 -0.10664,0.18286 -1.58831,0.93599 -3.21107,1.81227 -4.81661,2.71841 -0.39829,-0.49924 -0.20443,-1.03132 -0.0864,-1.61926 0.15557,-0.84073 0.38414,-1.66168 0.6032,-2.48531 0.36961,-1.22743 0.63415,-2.48623 1.07486,-3.69336 0.35404,-1.23305 0.6564,-2.48237 1.08652,-3.69034 0.40652,-1.11236 0.85741,-2.21155 1.31883,-3.30251 0.50397,-1.22999 0.90219,-2.49463 1.40957,-3.72287 0.5451,-1.42937 1.03942,-2.88239 1.70331,-4.26326 0.50542,-1.10461 0.96323,-2.23462 1.51633,-3.31491 1.17105,-1.71876 6.53419,-4.89083 5.26321,-2.20511 -0.67686,0.92688 -1.3612,1.84734 -1.96644,2.82318 -0.68431,1.06361 -1.47621,2.0472 -2.20261,3.0816 -0.71188,1.09721 -1.36682,2.22935 -2.07848,3.32665 -0.6349,1.04742 -1.24411,2.12731 -2.02002,3.07635 -0.81476,1.02142 -1.72487,1.97135 -2.18558,3.22456 -0.5778,1.2169 -1.14184,2.43741 -1.614,3.70056 -0.39961,1.0752 -0.79651,2.16623 -1.38353,3.15538 -0.006,0.0109 -0.26009,0.50816 -0.28105,0.51976 -5.68293,3.14477 -5.02576,4.22993 -4.73216,1.93172 0.16407,-1.11296 0.36563,-2.2209 0.75525,-3.28117 0.3492,-1.32279 0.71505,-2.64204 1.09984,-3.95485 0.3575,-1.24162 0.80967,-2.45471 1.13043,-3.70757 0.40206,-1.2155 0.99632,-2.3534 1.40434,-3.56772 0.47652,-1.36796 1.06609,-2.69944 1.3685,-4.12364 0.38934,-1.30131 0.78556,-2.6017 1.12206,-3.91775 0.0997,-0.24857 0.21844,-0.56245 0.34149,-0.80408 0.9244,-1.8151 4.34873,-4.77111 5.19305,-2.47944 -0.0935,0.34288 0.0482,-0.11626 -0.18115,0.3457 -0.34869,0.70221 -0.5348,1.48471 -0.908,2.17734 -0.51253,1.20358 -0.98845,2.4232 -1.53654,3.61092 -0.65062,1.14275 -1.20342,2.3383 -1.92775,3.43856 -0.73157,1.17004 -1.46657,2.33907 -2.2331,3.48635 -0.78811,1.05789 -1.69569,2.03166 -2.37547,3.1647 -0.59707,0.94818 -1.17047,1.90955 -1.83123,2.81577 -0.4002,0.72899 -0.90408,1.39644 -1.3457,2.10108 -0.22537,-0.0215 -0.33882,0.24666 -0.42969,0.4321 -1.55136,0.97573 -3.10272,1.95146 -4.65409,2.92719 -0.68542,-0.47173 -0.72321,-1.24981 -0.76682,-2.03047 -5.3e-4,-1.03246 -0.005,-2.06495 -0.0185,-3.09732 -0.008,-0.65033 0.0354,-1.29416 0.0962,-1.94229 0.1129,-1.34778 0.30532,-2.68356 0.62349,-3.99988 0.21274,-1.28421 0.42121,-2.56837 0.63232,-3.85269 0.25542,-1.27577 0.55513,-2.54948 1.0145,-3.76854 1.29982,-3.74534 0.8507,-2.54364 5.77013,-5.55021 0.78034,0.56093 0.58541,1.13534 0.24512,1.94771 -0.42831,1.14865 -0.83637,2.30731 -1.22849,3.46863 -0.40365,1.32839 -0.91675,2.62631 -1.53332,3.87032 -0.54889,1.10438 -1.05885,2.22427 -1.52824,3.36499 -0.50606,1.29632 -1.17569,2.5273 -1.59597,3.85409 -0.28195,0.9937 -0.62726,1.97041 -0.99891,2.93386 -0.6763,1.80543 -6.13151,5.1388 -5.29323,2.68266 0.15747,-0.9761 0.28996,-1.95642 0.24321,-2.948 0.0138,-1.13183 0.0318,-2.26471 0.13861,-3.39244 0.13033,-1.22232 0.33341,-2.434 0.4252,-3.66015 0.17222,-1.29028 0.34675,-2.57989 0.54666,-3.86588 0.26059,-1.29632 0.52691,-2.59031 0.70926,-3.9009 0.3365,-1.67581 0.67476,-3.35097 1.02045,-5.02475 0.30233,-1.41685 0.58013,-2.84314 0.97915,-4.23613 0.85418,-2.12998 0.12228,-0.55947 5.10298,-3.07238 0.0452,-0.0228 0.0565,0.0913 0.0542,0.14185 -0.007,0.15895 -0.11718,0.29624 -0.16352,0.44846 -0.0429,0.14087 -0.0792,0.28367 -0.11874,0.42551 -0.33272,1.15516 -0.71095,2.29507 -1.13008,3.42182 -0.47542,1.23153 -0.94216,2.46631 -1.33284,3.72793 -0.3791,1.31419 -0.68217,2.64874 -1.10856,3.94901 -0.39394,1.26186 -0.77964,2.52369 -1.22575,3.76842 -0.35592,1.26038 -0.75592,2.508 -1.14511,3.75864 -0.39887,1.23016 -0.77474,2.4648 -1.04323,3.73174 -0.32902,1.20775 -0.69717,2.41521 -1.22142,3.55373 -0.0496,0.10921 -0.0993,0.21842 -0.14895,0.32763 -0.0392,0.0599 -0.0849,0.11597 -0.11754,0.17964 -0.0286,0.0558 -0.01,0.14711 -0.0651,0.17651 -1.60732,0.85306 -3.26952,1.59967 -4.87947,2.44776 -0.0465,0.0245 0.37192,0.32313 0.10362,-0.11885 0.12559,-1.19166 0.2511,-2.38394 0.42945,-3.56909 0.19513,-1.36256 0.30508,-2.73788 0.33773,-4.1139 0.17287,-3.85853 -0.41267,-2.22886 4.99715,-4.96721 -0.32072,0.16315 -0.51693,0.57846 -0.72913,0.85882 -0.38041,0.50259 -0.78507,0.98287 -1.1892,1.46648 -0.8081,0.9821 -1.69848,1.90104 -2.36628,2.99213 -0.5977,0.92392 -1.23414,1.82015 -1.85878,2.72352 -1.5027,2.14251 -5.95405,4.94769 -5.32204,1.60986 0.0862,-1.21043 0.20811,-2.41565 0.57971,-3.57874 0.37478,-1.40136 0.65261,-2.82618 1.06918,-4.21644 0.38097,-1.13962 0.73785,-2.29331 1.21576,-3.39588 1.66576,-0.99944 4.6535,-4.13716 5.34523,-2.32191 0.0809,0.21219 0.0482,0.50644 0.0431,0.71843 -0.0264,1.03954 -0.0463,2.08293 -0.23102,3.10962 -0.25753,1.55866 -0.46723,3.12273 -0.73021,4.68013 -0.29267,1.40938 -0.55543,2.82595 -0.73381,4.2547 -0.034,0.17329 -0.43315,1.95348 -0.48781,1.98558 -4.97852,2.92296 -4.90336,4.41706 -4.97687,2.49845 0.42151,-0.70308 0.44803,-2.08321 0.70407,-2.88671 0.27787,-1.20455 0.57058,-2.40634 0.85276,-3.60947 0.35861,-1.20967 0.74014,-2.40998 0.94309,-3.65987 0.31189,-1.29053 0.57195,-2.5882 0.78501,-3.89862 0.27943,-1.451 0.46089,-2.91885 0.68349,-4.37902 0.23397,-1.42675 0.37386,-2.86763 0.49566,-4.3077 0.17223,-1.70382 0.34301,-3.40626 0.49754,-5.11151 0.44356,-3.77744 -0.2573,-2.24856 5.15243,-5.10358 0.43649,0.74517 -0.19461,1.72763 -0.31658,2.48618 -0.45933,1.28603 -0.97089,2.55314 -1.64077,3.74627 -0.56829,1.21032 -1.17738,2.40854 -1.54316,3.70077 -0.3803,1.19011 -0.97879,2.28735 -1.3972,3.46355 -0.44124,1.22767 -1.01679,2.40019 -1.45907,3.62807 -0.60983,1.50511 -1.17331,3.02852 -1.74878,4.54699 -0.47259,1.34046 -0.94854,2.67583 -1.47899,3.99468 -0.40524,1.21191 -0.93839,2.35917 -1.57582,3.46683 -0.0921,0.13601 -0.18427,0.27202 -0.2764,0.40803 -0.0762,0.10051 -0.15748,0.19731 -0.22849,0.30152 -0.10082,0.14797 -0.13688,0.33458 -0.24181,0.47967 -0.0342,0.0473 -0.096,0.0665 -0.14398,0.0997 -0.0344,0.0599 -0.0687,0.11986 -0.10309,0.17979 -1.02011,1.74024 -4.03929,4.83405 -5.44941,2.94968 -0.27469,-0.60542 0.0486,-1.49746 -0.0509,-2.14682 0.0346,-1.24602 0.10074,-2.49222 0.29858,-3.72475 0.21893,-1.37933 0.37625,-2.76686 0.62414,-4.14168 0.18206,-1.48957 0.39177,-2.97526 0.57443,-4.46457 0.23461,-1.50776 0.40626,-3.02491 0.7066,-4.52256 0.21541,-1.17686 0.42966,-2.35131 0.73786,-3.5089 0.21031,-0.87821 0.35583,-1.77473 0.68266,-2.62095 1.62244,-0.99871 4.1288,-4.18195 5.11444,-2.55153 0.0432,0.0715 0.0774,0.15287 0.0836,0.23614 0.0182,0.24249 -0.10059,0.49588 -0.17651,0.71298 -0.40262,1.11719 -0.84642,2.21814 -1.36156,3.28886 -0.54148,1.1583 -1.15944,2.27811 -1.72088,3.42596 -0.53578,1.27119 -1.01188,2.56558 -1.57239,3.82603 -0.47638,1.12794 -1.10956,2.17945 -1.57962,3.31073 -0.53233,1.1574 -1.01273,2.3394 -1.52432,3.50533 -0.46323,1.24692 -0.91082,2.4957 -1.30866,3.7655 -0.3516,1.30384 -0.69983,2.60932 -1.10165,3.8985 -0.59512,2.12806 -1.80224,5.96758 -5.39918,4.53161 -0.70298,-0.48841 -0.59253,-1.37715 -0.59517,-2.14871 0.004,-1.17807 0.0172,-2.35672 0.0965,-3.53259 0.10334,-1.32582 0.27538,-2.64306 0.40274,-3.96577 0.13536,-1.33536 0.35615,-2.66048 0.42027,-4.00265 0.15314,-1.30024 0.30264,-2.59941 0.43509,-3.90172 0.1898,-1.30857 0.29278,-2.62961 0.58684,-3.92143 0.29392,-1.42348 0.55118,-2.85417 0.88102,-4.2704 0.24805,-1.26333 0.59845,-2.50135 0.99548,-3.72564 0.0609,-0.1519 0.12593,-0.30222 0.18276,-0.45569 0.0539,-0.14568 0.0172,-0.35987 0.14944,-0.44142 1.95793,-1.2077 5.45216,-4.6472 5.01738,-1.77337 -0.31548,1.27265 -0.78553,2.50407 -1.05559,3.78987 -0.36197,1.28203 -0.63102,2.58992 -1.01658,3.86628 -0.25655,1.13464 -0.49859,2.27054 -0.76686,3.40267 -0.31186,1.19442 -0.48447,2.41733 -0.80632,3.60892 -0.3885,1.3107 -0.69556,2.65154 -0.91556,4.0004 -0.23037,1.41102 -0.38265,2.83433 -0.52342,4.25662 -0.17318,1.23648 -0.26468,2.47888 -0.44341,3.71495 -0.13401,0.85695 -0.13059,1.76507 -0.56817,2.53967 -4.62333,2.8215 -3.25798,2.66567 -6.38317,3.11557 -0.70604,0.0713 -1.41865,0.11525 -2.10447,0.31298 -0.3523,0.0855 -0.72424,0.0781 -1.02143,0.30099 -0.39623,0.14856 -0.48109,-10e-5 -0.7162,-0.43045 -0.0388,-0.0709 0.56045,0.0979 0.10876,-0.21677 0.007,-0.0291 0.0994,-0.44098 0.10182,-0.46511 0.009,-0.0965 -0.0659,-0.22069 0.001,-0.29087 0.0463,-0.0485 0.0834,0.1052 0.12994,0.15346 0.015,0.0156 -0.0341,-0.14346 0.003,-0.0648 0.0206,-0.55923 0.0119,-1.11899 0.0124,-1.67847 0.009,-1.1984 0.0217,-2.39676 0.0247,-3.5952 0.0166,-1.33183 0.0592,-2.66618 0.22734,-3.98882 0.18959,-1.30622 0.44847,-2.60103 0.56722,-3.91763 0.1206,-1.7438 0.33015,-3.47892 0.66875,-5.195 0.23531,-1.7359 0.44843,-3.47194 0.55013,-5.22186 0.19495,-1.57358 0.42681,-3.14551 0.73996,-4.69998 0.26134,-1.28183 0.49864,-2.56849 0.74058,-3.85334 1.57502,-0.93339 3.09234,-1.97185 4.72507,-2.80016 0.11238,-0.057 0.19614,0.16341 0.26705,0.26758 0.34988,0.51397 -0.0809,1.51902 -0.16357,2.05247 -0.34066,1.27164 -0.56039,2.57017 -0.82941,3.85805 -0.28893,1.30426 -0.60924,2.60116 -0.88504,3.90846 -0.34265,1.32261 -0.61811,2.66056 -0.93929,3.98845 -0.23335,1.31315 -0.40537,2.63615 -0.51065,3.96552 -0.14108,1.41717 -0.17802,2.83743 -0.30481,4.25585 -0.15179,1.32027 -0.31732,2.64267 -0.55741,3.94922 -0.28847,1.15565 -0.539,2.33848 -1.03336,3.42647 -0.19762,0.33738 -0.36386,0.69264 -0.56442,1.02829 -0.41072,0.68732 -0.96082,1.29194 -1.44536,1.92526 -0.61071,0.76552 -1.27068,1.45256 -2.05975,2.04033 -1.6511,0.96962 -3.28957,1.96108 -4.9533,2.90886 -0.72388,0.41238 -1.42352,0.0984 -2.06246,-0.29919 -0.9011,-0.58593 -1.57721,-1.40412 -2.18672,-2.28273 -0.51007,-0.76248 -1.04388,-1.54306 -1.20055,-2.46409 1.5581,-1.03316 3.99892,-4.25047 4.94835,-2.63999 0.14742,0.25005 0.12014,0.60118 0.24851,0.85758 0.24091,0.97054 0.42994,1.97114 0.43577,2.97283 -0.005,0.0651 -0.0208,0.61655 -0.12271,0.68594 -1.13613,0.77325 -4.92186,4.90654 -4.92967,2.10748 0.25865,-1.55984 0.42884,-3.1368 0.62175,-4.70545 0.14307,-1.08983 0.25958,-2.19104 0.55901,-3.24983 1.38074,-2.36778 4.79004,-4.67166 5.41426,-1.90827 0.21362,1.12472 0.5379,2.22097 0.77094,3.34159 0.20156,1.09494 0.46188,2.17823 0.74204,3.25549 0.10261,0.44016 0.16305,0.59792 0.17911,1.0428 0.0789,2.18487 -2.89897,6.37489 -5.10302,3.32804 -0.32043,-0.99912 0.0414,-2.06912 -0.0649,-3.09618 0.0115,-1.20526 0.0362,-2.4113 0.13073,-3.61336 0.0964,-1.1911 0.29158,-2.37215 0.31348,-3.56884 0.0974,-1.19236 0.2991,-2.36878 0.42973,-3.55675 0.15527,-1.16077 0.42806,-2.29887 0.59333,-3.45795 0.23371,-1.24242 0.35968,-2.50587 0.60721,-3.74696 0.31045,-1.60075 0.66519,-3.19239 0.99492,-4.78924 0.24066,-1.29803 0.38771,-2.61629 0.72449,-3.89445 0.13485,-0.62381 0.35444,-1.11078 0.78598,-1.58675 3.65868,-1.93389 6.04801,-4.37905 4.57953,-0.83249 -0.4075,1.13869 -0.85676,2.26209 -1.18122,3.43023 -0.4177,1.2523 -0.80612,2.51318 -1.31451,3.73213 -0.45926,1.33185 -0.89876,2.67863 -1.50147,3.95347 -0.57622,1.27887 -1.08559,2.58473 -1.65543,3.86568 -0.56836,1.40984 -1.12042,2.82544 -1.75529,4.20781 -0.47975,1.2216 -1.17933,2.32154 -1.84458,3.4494 -0.59975,1.13354 -1.20981,2.27411 -1.90116,3.35052 -0.54928,0.71695 -1.04592,1.46627 -1.39672,2.30288 -0.28772,0.29359 -0.58067,0.60361 -0.74191,0.98711 -0.77498,1.83588 -3.36113,4.263 -5.03457,2.97538 -0.43493,-0.50932 -0.3321,-1.22659 -0.2491,-1.85107 0.12012,-0.80432 0.16523,-1.60675 0.21617,-2.4195 0.10273,-1.2438 0.30515,-2.47415 0.43837,-3.71415 0.1629,-1.1934 0.42598,-2.36849 0.71179,-3.53767 0.30127,-1.14449 0.60392,-2.29827 0.76287,-3.47141 0.24941,-1.32544 0.65331,-2.60493 1.04971,-3.89257 0.37779,-1.36688 0.71409,-2.74196 1.05029,-4.11962 0.40783,-1.26246 0.81063,-2.53012 1.31637,-3.75721 0.50008,-1.26942 1.0463,-2.51833 1.52049,-3.79823 0.42984,-0.89025 0.87067,-1.77051 1.4085,-2.60111 1.03818,-1.70703 4.49325,-4.81505 5.47919,-2.65198 0.007,0.94417 -0.56606,1.80931 -0.73151,2.72527 -0.50866,1.12112 -0.99482,2.25488 -1.41234,3.41304 -0.40643,1.18245 -0.82869,2.3702 -1.41091,3.47883 -0.61348,1.23715 -1.18669,2.49157 -1.83753,3.71057 -0.62954,1.35171 -1.40182,2.61433 -2.09369,3.93243 -0.6038,1.22676 -1.2271,2.44187 -1.80643,3.68007 -0.62209,1.36877 -1.20344,2.75425 -1.89979,4.08844 -0.63573,1.31413 -1.30299,2.61512 -1.85708,3.96634 -0.45423,1.1931 -1.08045,2.33533 -1.2833,3.60904 -0.16042,0.9995 -0.32454,2.03321 -0.71418,2.96928 -1.96795,1.19894 -5.18934,4.90591 -5.25872,1.5937 -0.0116,-1.20498 0.0248,-2.40402 0.11377,-3.60494 0.0587,-1.284 0.17254,-2.56263 0.35599,-3.83536 0.0773,-1.29682 0.20766,-2.58654 0.39254,-3.87268 0.0876,-1.43307 0.25809,-2.86341 0.26773,-4.29906 0.008,-1.2597 0.0396,-2.51977 0.12872,-3.77663 0.1085,-1.33521 0.28181,-2.66771 0.22081,-4.01035 -5e-5,-1.40712 -0.009,-2.81492 0.0421,-4.22132 0.0626,-1.46143 0.13985,-2.9383 0.5276,-4.35628 0.27595,-0.90298 0.63149,-1.78194 0.63524,-2.74212 0.0396,-0.31825 0.1489,-0.33926 0.34431,-0.55647 1.56225,-1.78645 0.25363,-1.49754 5.16897,-3.40293 0.59332,0.75789 0.26662,1.34642 0.0925,2.23808 -0.28344,1.3166 -0.60843,2.62247 -0.96036,3.92238 -0.26401,1.18835 -0.63616,2.35156 -0.98267,3.51782 -0.24718,1.07181 -0.22617,2.16904 -0.43184,3.24905 -0.23788,1.15096 -0.38651,2.32431 -0.78191,3.43677 -0.43598,1.31177 -0.81105,2.63915 -1.10286,3.99064 -0.23598,1.10331 -0.50825,2.19632 -0.83947,3.27499 -0.10053,0.27686 -0.14045,0.7321 -0.3141,0.97274 -0.04,0.0555 -0.15824,0.009 -0.19378,0.0677 -0.0139,0.0229 0.009,0.0527 0.0138,0.0791 -0.2367,-0.32632 0.40191,0.28068 0.2234,0.59446 -0.30826,0.91258 -0.55468,1.84692 -0.72897,2.7944 -0.36227,1.79382 -0.69795,3.5955 -1.19016,5.35963 0,0 -4.78508,2.27974 -4.78508,2.27974 z"
           inkscape:connector-curvature="0" />
      </a>
      <path
         inkscape:connector-curvature="0"
         d="m 170.16977,391.64579 c 0.20954,-1.49766 0.22534,-3.00101 0.14099,-4.50744 -0.058,-1.0919 -0.28546,-2.16347 -0.40217,-3.24958 -0.0699,-1.23423 -0.24958,-2.45851 -0.46039,-3.67542 -0.19384,-1.49137 -0.52117,-2.95969 -0.74322,-4.44636 -0.24332,-1.61938 -0.59412,-3.21889 -0.82063,-4.84074 -0.16772,-1.00186 -0.34243,-2.00253 -0.53107,-3.00067 -0.17912,-1.02568 0.96238,-0.72005 4.65861,-2.39303 0.0719,-0.0325 -0.0424,0.15198 -0.0661,0.22721 -0.0699,0.22181 -0.14393,0.42553 -0.22138,0.64519 -0.26844,1.0655 -0.45676,2.15002 -0.70512,3.22139 -0.33795,1.27676 -0.59812,2.57175 -0.9011,3.85701 -0.2761,1.29196 -0.54324,2.58567 -0.81024,3.87961 -0.29757,1.29221 -0.41904,2.61132 -0.48595,3.93251 -0.12883,1.39164 -0.26056,2.78191 -0.33382,4.17787 -0.001,1.2741 -0.14167,2.5382 -0.26458,3.80431 -0.0658,0.96242 -0.25194,1.91044 -0.37996,2.86546 -0.0595,0.71202 -0.3573,1.36988 -0.56456,2.04639 -0.10081,0.36515 -0.16466,0.7383 -0.20933,1.11395 -0.004,0.0374 0.0212,0.0968 -0.0132,0.11234 -0.0295,0.0133 -0.0295,-0.0576 -0.0442,-0.0864 -0.009,-0.0337 -0.0468,-0.12927 -0.0264,-0.10106 0.2508,0.34656 0.11571,0.78414 0.0861,1.17561 -0.13211,3.05085 0.485,1.26968 -4.79632,3.57899 -0.0824,-1.02514 -0.2781,-2.03643 -0.42316,-3.05363 -0.21991,-1.26934 -0.50816,-2.52531 -0.78978,-3.78203 -0.38709,-1.31398 -0.78546,-2.62369 -1.13898,-3.94784 -0.26443,-1.20401 -0.44791,-2.42628 -0.62188,-3.64664 -0.156,-1.12245 -0.31965,-2.24537 -0.50556,-3.36345 -0.17027,-1.00124 -0.42173,-1.98945 -0.67712,-2.97217 -0.10435,-0.43641 -0.19764,-0.88004 -0.40888,-1.28064 -0.0466,-0.0884 -0.0924,-0.18142 -0.1645,-0.25064 -0.0255,-0.0245 -0.13722,0.007 -0.10577,-0.009 1.522,-0.78575 3.06108,-1.53796 4.59162,-2.30695 0.12066,1.25804 0.68579,2.43368 1.06837,3.62972 0.45199,1.41201 0.93038,2.81467 1.37415,4.2293 0.38157,1.33587 0.73828,2.6782 1.12066,4.01385 0.3761,1.34604 0.69206,2.70822 1.06983,4.05359 0.26201,0.96523 0.50944,1.93586 0.64483,2.92761 0.50152,2.52791 1.62407,0.20044 -4.38552,3.14923 0.49249,-0.87853 0.73675,-1.85996 1.02787,-2.81621 0.44464,-1.33432 0.94939,-2.64758 1.35588,-3.9943 0.38421,-1.29951 0.8163,-2.5789 1.0636,-3.91348 0.20157,-0.95164 0.36229,-1.90973 0.47231,-2.87611 2.8e-4,-0.41734 0.15417,-0.80671 0.21577,-1.21359 6.47457,-2.93029 5.29761,-3.37306 4.45323,-1.29018 -0.21495,0.53024 -0.41801,1.06675 -0.6252,1.60014 -0.54097,1.34691 -0.8868,2.75775 -1.27562,4.15275 -0.45252,1.7217 -0.92467,3.43573 -1.23656,5.1895 -0.54795,3.77884 0.71902,1.85742 -5.03394,4.45422 0.008,-0.88542 -0.0916,-1.7677 -0.22695,-2.64141 -0.19546,-1.24302 -0.41406,-2.48234 -0.65645,-3.7171 -0.19364,-1.17428 -0.56006,-2.29249 -1.0594,-3.36917 -0.27751,-0.57885 -0.62743,-1.12097 -1.03482,-1.61651 -1.19527,-1.34997 -0.25137,-0.23627 4.54371,-2.3215 0.0972,-0.0423 -0.0858,0.19435 -0.11856,0.29518 -0.17639,0.54201 -0.27057,1.10579 -0.36879,1.66542 -0.28756,1.4815 -0.45276,2.98151 -0.65879,4.47546 -0.16908,1.3618 -0.35742,2.72258 -0.64935,4.06389 -0.26779,1.27469 -0.82035,2.45115 -1.40291,3.60618 -0.68977,1.17487 -1.21625,2.42436 -1.64384,3.71476 -0.39282,1.13555 -0.82253,2.24884 -1.07721,3.42572 -0.16503,0.8366 -0.19763,1.68932 -0.19923,2.53957 -0.002,1.76894 -0.12438,0.57414 -4.59366,2.56969 -0.0925,0.0413 0.13691,-0.15269 0.18245,-0.24324 0.053,-0.10535 0.0727,-0.22434 0.10907,-0.33651 0.0424,-1.13941 -0.22062,-2.26902 -0.47632,-3.37272 -0.31505,-1.22346 -0.57279,-2.46736 -0.96374,-3.6697 -0.34516,-1.10001 -0.797,-2.15864 -1.09121,-3.27445 -0.23109,-1.23359 -0.48047,-2.46241 -0.80713,-3.6745 -0.27565,-1.1701 -0.58486,-2.33141 -0.88468,-3.49539 -0.26901,-1.23525 -0.86703,-2.34536 -1.42618,-3.46532 -0.54567,-1.1439 -1.1698,-2.24774 -1.80537,-3.34339 -0.34567,-0.58399 -0.69588,-1.16545 -1.06032,-1.73796 0.64533,1.93144 -0.0958,0.0355 4.57428,-2.18108 0.10195,-0.0484 0.007,0.22702 0.032,0.33704 0.11112,0.48659 0.3518,0.97513 0.53458,1.43668 0.54614,1.3909 1.00947,2.80675 1.39889,4.24916 0.41967,1.50209 0.76605,3.02308 1.15084,4.53418 0.39427,1.53418 0.77734,3.07073 1.19984,4.59747 0.29733,1.28614 0.80843,2.50339 1.10933,3.78788 0.17476,1.04725 0.38555,2.08209 0.74213,3.08315 0.42321,1.01862 0.68288,2.08709 0.92508,3.15997 0.23395,1.18281 0.37286,2.38169 0.56016,3.57277 0.1047,0.42621 0.16363,0.86499 0.30908,1.28069 0.0187,0.0534 0.0843,0.20912 0.0708,0.15421 -0.0222,-0.0899 -0.0132,-0.29963 -0.097,-0.2603 -1.54233,0.72375 -3.00172,1.61246 -4.50258,2.41869 0.16107,-1.40131 0.12164,-2.82105 0.1252,-4.2299 -0.0659,-1.59634 0.0581,-3.18581 0.17872,-4.77569 0.10229,-1.40604 0.24906,-2.81251 0.52744,-4.19521 0.29233,-1.40035 0.58663,-2.79939 0.92226,-4.1901 0.34116,-1.21795 0.68788,-2.43193 0.9857,-3.66124 0.30306,-1.13204 0.44693,-2.29257 0.52149,-3.45918 0.0559,-1.10814 0.0511,-2.21814 0.0522,-3.32734 0.0286,-1.15659 -0.14739,-2.3037 -0.34316,-3.43968 -0.17357,-1.0273 -0.38981,-2.04726 -0.60098,-3.06748 -0.22241,-0.76797 -0.40563,-1.54786 -0.57068,-2.33027 -0.028,-0.12508 -0.0518,-0.25116 -0.0839,-0.37523 -0.02,-0.0771 -0.0964,-0.30181 -0.087,-0.22268 0.22998,1.9394 4.85387,-4.31021 4.6308,-2.0546 -0.004,1.18071 -0.10844,2.35487 -0.1982,3.53136 -0.20296,2.25726 -0.5855,4.49285 -0.89347,6.73698 -0.22316,1.65424 -0.41063,3.31402 -0.64163,4.96707 -0.19163,1.35418 -0.37403,2.70976 -0.55055,4.06611 -0.15407,1.19801 -0.20144,2.40505 -0.22911,3.61136 -0.004,1.10965 0.004,2.215 -0.10203,3.32032 -0.0909,1.11268 -0.22657,2.21747 -0.3856,3.32209 -0.18877,0.96573 -0.37828,1.92989 -0.49478,2.90748 -0.008,0.0802 -0.005,0.16246 -0.0241,0.2407 -0.037,0.14847 -0.0301,-0.49121 -0.1689,-0.42684 -10.76306,4.99092 -5.27321,3.43473 -4.14415,2.27801 0.47169,-0.6605 0.82655,-1.39201 1.17048,-2.12416 0.48997,-1.20747 0.9998,-2.40763 1.44844,-3.63138 0.57245,-1.59338 1.1833,-3.17317 1.82821,-4.73857 0.67113,-1.44008 1.23454,-2.92473 1.79831,-4.40893 0.45252,-1.17523 0.8167,-2.38017 1.17557,-3.58633 0.46319,-1.3127 0.73026,-2.67792 1.00735,-4.03829 0.20188,-1.29688 0.41187,-2.59416 0.56999,-3.89749 0.12857,-1.11838 0.15088,-2.24462 0.16757,-3.36902 -0.0313,-1.41336 0.11698,-2.81946 0.21918,-4.22697 0.0464,-1.46324 0.22162,-2.91616 0.34747,-4.37348 0.10149,-1.35991 0.10986,-2.72164 0.2406,-4.07932 0.10909,-1.37243 0.24281,-2.74062 0.39744,-4.10865 0.0909,-0.78149 0.15539,-1.56561 0.18915,-2.35159 -0.004,-0.021 -0.0309,-0.0542 -0.0115,-0.0629 4.32988,-1.92367 5.59741,-3.44554 4.20916,-0.60756 -0.60458,1.05755 -0.94572,2.22799 -1.31936,3.37872 -0.37686,1.06624 -0.91626,2.06374 -1.36525,3.09962 -0.41279,1.14617 -0.73101,2.32292 -1.09234,3.48567 -0.33133,1.08791 -0.55143,2.20166 -0.86002,3.29639 -0.15907,0.74437 -0.3769,1.47324 -0.67929,2.17171 -0.24724,0.37094 -0.18981,0.83779 -0.19929,1.27462 -0.10211,1.06848 -0.22718,2.1332 -0.29335,3.20518 -0.0615,1.24081 -0.0679,2.48339 -0.074,3.72543 -6.5e-4,1.27302 0.001,2.54603 0.003,3.81905 0.001,1.17542 0.002,2.35084 0.005,3.52625 0.009,1.19209 -0.16298,2.376 -0.25376,3.56309 -0.0854,1.27039 -0.0966,2.54416 -0.10714,3.8169 0.005,1.2391 -0.0639,2.4767 0.12282,3.70504 0.19285,0.50803 0.19523,2.21753 0.70421,2.45875 1.25801,-1.34853 3.34307,-1.92434 -4.15194,2.25781 -0.0977,0.0545 0.14626,-0.17082 0.20297,-0.26723 0.23541,-0.48013 0.15726,-1.0179 0.0507,-1.52023 0.0943,0.1202 -0.20935,-0.56886 -0.12649,-0.44051 0.0823,0.1275 0.0866,0.46022 0.22418,0.39626 4.46865,-2.07682 4.57589,-4.29572 4.43165,-2.35813 0,0 -4.76866,2.38494 -4.76866,2.38494 l 0,0 c 0.1763,-2.33359 4.54321,-5.14926 4.93226,-2.50075 0.13117,0.5991 0.23697,1.20346 0.10649,1.81392 -0.67596,2.07488 -0.65539,0.80576 -4.82651,3.23755 -0.0902,0.0526 -0.33122,-0.017 -0.39809,-0.0497 -0.0772,-0.0377 -0.14036,-0.0991 -0.21053,-0.14863 -0.65492,-0.76586 -0.58377,-1.8569 -0.8386,-2.78791 -0.22414,-1.25348 -0.17072,-2.51706 -0.16173,-3.78646 0.006,-1.28226 0.0179,-2.56498 0.0883,-3.84564 0.0774,-1.17652 0.2531,-2.34719 0.26375,-3.52602 0.003,-1.17659 0.003,-2.3532 0.003,-3.52979 -3.3e-4,-1.27446 -0.002,-2.54893 0.002,-3.82338 0.001,-1.24875 -0.002,-2.49821 0.054,-3.74599 0.0511,-1.06153 0.1385,-2.12052 0.28541,-3.17352 -0.002,-0.46344 -0.0996,-1.06219 0.0636,-1.4882 0.39385,-0.63481 0.63942,-1.35948 0.77289,-2.09116 0.29675,-1.10451 0.56843,-2.20914 0.84888,-3.31747 0.39364,-1.16336 0.70047,-2.35395 1.0781,-3.52269 0.40448,-1.04731 0.9529,-2.02898 1.37427,-3.0688 0.41178,-1.15262 0.6971,-2.35692 1.27031,-3.44694 1.59285,-2.81432 -0.83669,-0.47052 5.43442,-3.92936 0.011,-0.006 -0.0166,0.0187 -0.0249,0.0281 -0.0594,0.80225 -0.12328,1.60492 -0.22548,2.40296 -0.16049,1.36543 -0.30807,2.72897 -0.40064,4.10095 -0.13892,1.35621 -0.17103,2.71425 -0.25028,4.07506 -0.11845,1.45673 -0.31481,2.90615 -0.35276,4.36859 -0.0967,1.39559 -0.26247,2.78873 -0.21588,4.18979 -0.008,1.14187 -0.0274,2.28507 -0.14508,3.42194 -0.15597,1.317 -0.38352,2.62336 -0.55894,3.93755 -0.26737,1.37317 -0.52904,2.755 -0.98644,4.08019 -0.35248,1.21949 -0.70639,2.43918 -1.15958,3.62585 -0.57566,1.48916 -1.12554,2.99017 -1.8111,4.43353 -0.66373,1.54596 -1.25022,3.12461 -1.82653,4.70494 -0.42703,1.23971 -0.9526,2.43722 -1.4106,3.66532 -0.33236,0.74288 -0.66204,1.49208 -1.0937,2.18394 -0.90217,1.88084 -2.00267,1.72115 -4.96557,3.14232 -0.0966,0.0464 -0.37977,-0.35193 -0.39011,-0.49816 -0.006,-0.0822 0.0258,-0.16271 0.0387,-0.24407 0.12444,-0.98284 0.28361,-1.96047 0.50785,-2.92603 0.15801,-1.09999 0.32269,-2.19474 0.39692,-3.30479 0.1236,-1.09225 0.1285,-2.18202 0.12256,-3.28093 0.0212,-1.22497 0.0676,-2.45101 0.21796,-3.66797 0.16608,-1.36125 0.36201,-2.71847 0.54465,-4.07736 0.26728,-1.65365 0.43521,-3.3246 0.68382,-4.9813 0.31466,-2.22837 0.70649,-4.44825 0.88949,-6.69306 0.0667,-1.16455 0.18416,-2.32567 0.13897,-3.4933 0.0249,-2.26886 4.87882,-4.97623 4.97057,-2.24251 0.15932,0.78548 0.35555,1.56453 0.5885,2.33095 0.17753,1.0325 0.39922,2.05602 0.57875,3.08762 0.20655,1.16202 0.40466,2.33472 0.38809,3.51928 0.002,1.11826 0.008,2.23702 -0.0352,3.35467 -0.0673,1.19564 -0.18561,2.38849 -0.48815,3.55123 -0.31327,1.22465 -0.59563,2.45611 -0.99133,3.65918 -0.33265,1.3893 -0.65944,2.77836 -0.93336,4.18102 -0.30925,1.35549 -0.44893,2.74435 -0.55005,4.12942 -0.13502,1.58203 -0.29807,3.16269 -0.23024,4.75339 0.008,1.42773 0.0399,2.85693 -0.0145,4.28394 -4.63565,3.05345 -4.48288,4.62335 -5.24434,1.20785 -0.1693,-1.18289 -0.33072,-2.36696 -0.5323,-3.54423 -0.23601,-1.05087 -0.49643,-2.09463 -0.91165,-3.09125 -0.37476,-1.01826 -0.59214,-2.07854 -0.75764,-3.1496 -0.28188,-1.28265 -0.79544,-2.49134 -1.08572,-3.77237 -0.42517,-1.52993 -0.79335,-3.07443 -1.19189,-4.61138 -0.39995,-1.50559 -0.74157,-3.02582 -1.1571,-4.52725 -0.37433,-1.42405 -0.83071,-2.81778 -1.38633,-4.18147 -0.20585,-0.49893 -0.44268,-1.00761 -0.60509,-1.52298 -0.0487,-0.15448 -0.23923,-0.3707 -0.11326,-0.4725 4.33174,-3.50098 3.26099,-4.38097 4.8171,-2.85488 0.33063,0.5945 0.6686,1.18491 1.00891,1.77392 0.64442,1.1041 1.27689,2.21707 1.82766,3.37158 0.56734,1.15576 1.19252,2.29321 1.48066,3.56103 0.29741,1.16185 0.61629,2.31786 0.88006,3.48822 0.33728,1.2114 0.58753,2.44344 0.81229,3.68029 0.28089,1.10799 0.73914,2.15301 1.07518,3.24436 0.40346,1.21457 0.65284,2.47523 0.97801,3.712 0.28732,1.16892 0.52727,2.35166 0.6031,3.55568 -0.005,0.0651 -0.027,0.75586 -0.15954,0.83422 -1.60658,0.94966 -4.53948,4.19507 -5.05734,2.40208 -0.0459,-0.15884 0.0709,-0.33964 0.008,-0.49594 0.0193,-0.8801 8.6e-4,-1.76663 0.17163,-2.63481 0.21932,-1.20684 0.63076,-2.34564 1.07041,-3.48699 0.39712,-1.31784 0.88905,-2.61249 1.60603,-3.79325 0.57595,-1.11882 1.16014,-2.24268 1.44609,-3.4783 0.29876,-1.33301 0.55148,-2.67515 0.69072,-4.03622 0.20282,-1.49493 0.36751,-2.99519 0.64002,-4.47966 0.20104,-1.38507 1.47174,-9.55049 5.27467,-4.69321 0.40016,0.54915 0.76777,1.12573 1.05301,1.74357 0.51534,1.11399 0.91556,2.26582 1.11137,3.48222 0.25598,1.23703 0.46188,2.48427 0.67204,3.72968 0.15514,0.8825 0.28429,1.7795 0.29071,2.67588 -7.5146,4.13157 -4.93973,4.26825 -4.67637,2.24257 0.0843,-0.64862 0.14063,-1.30117 0.24925,-1.94669 0.29774,-1.7703 0.7663,-3.49755 1.21099,-5.23539 0.38789,-1.40084 0.70623,-2.82403 1.23197,-4.18233 0.54453,-1.52126 -0.13021,0.3271 0.42767,-1.09282 1.05992,-2.69778 0.0743,-1.48528 5.42997,-3.60101 -0.2356,0.075 -0.29495,0.76807 -0.33769,1.0102 -0.13161,0.9768 -0.26936,1.95352 -0.48992,2.91505 -0.22921,1.35791 -0.6411,2.65706 -1.05358,3.96828 -0.36388,1.36268 -0.88674,2.67371 -1.35267,4.00359 -0.29212,0.9608 -0.48919,1.96291 -0.9354,2.86806 -4.38117,2.39281 -4.51725,4.29867 -5.18266,1.52255 -0.0967,-0.97387 -0.313,-1.93029 -0.56988,-2.87378 -0.37809,-1.34394 -0.69457,-2.70468 -1.06932,-4.04972 -0.38686,-1.33047 -0.7311,-2.67233 -1.11127,-4.0047 -0.44568,-1.41397 -0.90617,-2.82254 -1.36586,-4.23207 -0.40268,-1.27646 -0.96568,-2.50279 -1.22993,-3.82014 4.10708,-2.54894 4.65663,-4.59229 5.52833,-1.02736 0.27141,0.99433 0.4879,2.00901 0.68708,3.01959 0.20449,1.12029 0.34416,2.25508 0.50993,3.38129 0.16535,1.20255 0.35239,2.40438 0.58569,3.5951 0.34588,1.33229 0.73892,2.64886 1.14955,3.96201 0.29449,1.26817 0.56681,2.54216 0.80845,3.82147 0.14793,1.03485 0.35164,2.0596 0.49139,3.09577 -5.55208,3.14856 -4.74048,4.31111 -4.69112,1.23139 0.003,-0.0944 0.0119,-0.48414 0.021,-0.60941 0.004,-0.0592 0.0154,-0.20251 0.0628,-0.16675 0.0414,0.0312 0.13051,0.16038 0.0923,0.12535 -0.0516,-0.0473 -0.0886,-0.10837 -0.13288,-0.16256 -0.0361,-0.0708 -0.0881,-0.13564 -0.10841,-0.21252 -0.0496,-0.18751 0.23108,-1.06758 0.22694,-1.29072 0.15778,-0.67674 0.47719,-1.30195 0.58992,-1.98658 0.14022,-0.95152 0.33404,-1.89742 0.40952,-2.85625 0.12952,-1.26041 0.30341,-2.51699 0.28917,-3.78706 0.0654,-1.39598 0.1837,-2.78827 0.33871,-4.1772 0.0512,-1.34501 0.14802,-2.68893 0.44076,-4.00678 0.28068,-1.2957 0.53727,-2.59583 0.81066,-3.8932 0.30161,-1.28282 0.55609,-2.57557 0.89319,-3.84934 0.24333,-1.08085 0.49168,-2.15888 0.65622,-3.25567 0.0111,-0.0352 0.27355,-0.83666 0.28239,-0.842 1.54661,-0.93456 4.62606,-4.18433 4.86436,-2.39306 0.14647,1.01677 0.30957,2.03104 0.48617,3.04302 0.20982,1.62308 0.55617,3.22172 0.80917,4.83818 0.2208,1.48033 0.56034,2.93913 0.75981,4.42308 0.21478,1.22642 0.40776,2.4591 0.4874,3.70287 0.10833,1.09839 0.34015,2.18037 0.39757,3.28265 0.0711,1.52398 0.0914,3.04332 -0.084,4.5627 0,0 -4.7459,2.36421 -4.7459,2.36421 z"
         id="path5713"
         style="fill:#008080;fill-opacity:1;stroke:none" />
    </g>
    <path
       style="fill:#008000;fill-opacity:1;stroke:none;filter:url(#filter5619)"
       d="m 213.8363,380.14864 c -34.63493,0.4199 -65.12986,27.94225 -72.5,61.125 -9.06081,35.09366 7.04872,75.635 39.4375,92.75 27.46533,15.64191 64.5566,10.13078 86.75,-12.25 28.46959,-26.7331 33.33086,-74.18818 11.48041,-106.55336 -13.92794,-21.77529 -39.08794,-35.99254 -65.16791,-35.07164 z"
       id="path5549"
       inkscape:connector-curvature="0" />
    <path
       sodipodi:type="star"
       style="fill:#ffff00;fill-opacity:0.89803922000000003;stroke:#000000;stroke-opacity:1;opacity:1;filter:url(#filter5376)"
       id="path3011"
       sodipodi:sides="3"
       sodipodi:cx="211.12189"
       sodipodi:cy="500.81888"
       sodipodi:r1="37.776196"
       sodipodi:r2="18.888098"
       sodipodi:arg1="-2.6241049"
       sodipodi:arg2="-1.5769074"
       inkscape:flatsided="true"
       inkscape:rounded="0"
       inkscape:randomized="0"
       d="m 178.29193,482.13105 65.42907,-0.39984 -32.36826,56.86316 z"
       inkscape:transform-center-x="0.1154251"
       inkscape:transform-center-y="9.343911"
       transform="translate(2.020305,-18.182746)"
       inkscape:export-filename="/home/clinstid/src/shapemonster/trianglemonster.png"
       inkscape:export-xdpi="180.67999"
       inkscape:export-ydpi="180.67999" />
    <path
       sodipodi:type="arc"
       style="fill:#ececec;fill-opacity:1;stroke:#000000;stroke-opacity:0.53140098"
       id="path3013"
       sodipodi:cx="165.15994"
       sodipodi:cy="428.59299"
       sodipodi:rx="28.789347"
       sodipodi:ry="25.75889"
       d="m 193.94929,428.59299 a 28.789347,25.75889 0 1 1 -57.57869,0 28.789347,25.75889 0 1 1 57.57869,0 z"
       transform="translate(27.779195,0.50507627)"
       inkscape:export-filename="/home/clinstid/src/shapemonster/trianglemonster.png"
       inkscape:export-xdpi="180.67999"
       inkscape:export-ydpi="180.67999" />
    <path
       transform="translate(72.225906,-1.5670776e-6)"
       sodipodi:type="arc"
       style="fill:#ececec;fill-opacity:1;stroke:#000000;stroke-opacity:0.53140098"
       id="path3013-4"
       sodipodi:cx="165.15994"
       sodipodi:cy="428.59299"
       sodipodi:rx="28.789347"
       sodipodi:ry="25.75889"
       d="m 193.94929,428.59299 a 28.789347,25.75889 0 1 1 -57.57869,0 28.789347,25.75889 0 1 1 57.57869,0 z"
       inkscape:export-filename="/home/clinstid/src/shapemonster/trianglemonster.png"
       inkscape:export-xdpi="180.67999"
       inkscape:export-ydpi="180.67999" />
    <path
       sodipodi:type="arc"
       style="fill:#d45500;fill-opacity:1;stroke:url(#linearGradient5298);filter:url(#filter6386)"
       id="path3013-9"
       sodipodi:cx="165.15994"
       sodipodi:cy="428.59299"
       sodipodi:rx="28.789347"
       sodipodi:ry="25.75889"
       d="m 193.94929,428.59299 a 28.789347,25.75889 0 1 1 -57.57869,0 28.789347,25.75889 0 1 1 57.57869,0 z"
       transform="matrix(0.33167668,0,0,0.6452073,156.34218,178.83071)"
       inkscape:export-filename="/home/clinstid/src/shapemonster/trianglemonster.png"
       inkscape:export-xdpi="180.67999"
       inkscape:export-ydpi="180.67999" />
    <path
       sodipodi:type="arc"
       style="fill:#ff6600;fill-opacity:0.89803922;stroke:#000000;stroke-opacity:1"
       id="path5332"
       sodipodi:cx="229.55716"
       sodipodi:cy="420.25922"
       sodipodi:rx="8.3337584"
       sodipodi:ry="7.8286824"
       d="m 237.89092,420.25922 a 8.3337584,7.8286824 0 1 1 -16.66752,0 8.3337584,7.8286824 0 1 1 16.66752,0 z"
       inkscape:export-filename="/home/clinstid/src/shapemonster/trianglemonster.png"
       inkscape:export-xdpi="180.67999"
       inkscape:export-ydpi="180.67999" />
    <path
       transform="translate(-46.719549,0.25254871)"
       sodipodi:type="arc"
       style="fill:#ff6600;fill-opacity:0.89803922;stroke:#000000;stroke-opacity:1"
       id="path5332-6"
       sodipodi:cx="229.55716"
       sodipodi:cy="420.25922"
       sodipodi:rx="8.3337584"
       sodipodi:ry="7.8286824"
       d="m 237.89092,420.25922 a 8.3337584,7.8286824 0 1 1 -16.66752,0 8.3337584,7.8286824 0 1 1 16.66752,0 z"
       inkscape:export-filename="/home/clinstid/src/shapemonster/trianglemonster.png"
       inkscape:export-xdpi="180.67999"
       inkscape:export-ydpi="180.67999" />
    <path
       sodipodi:type="star"
       style="fill:#ececec;fill-opacity:1;stroke:#000000;stroke-opacity:0.42028984"
       id="path5380"
       sodipodi:sides="3"
       sodipodi:cx="76.266518"
       sodipodi:cy="569.00421"
       sodipodi:r1="5.5558391"
       sodipodi:r2="2.7779195"
       sodipodi:arg1="1.5707963"
       sodipodi:arg2="2.6179939"
       inkscape:flatsided="true"
       inkscape:rounded="0"
       inkscape:randomized="0"
       d="m 76.266518,574.56005 -4.811498,-8.33376 9.622995,0 z"
       inkscape:transform-center-y="1.3889598"
       transform="translate(119.70308,-102.27795)"
       inkscape:export-filename="/home/clinstid/src/shapemonster/trianglemonster.png"
       inkscape:export-xdpi="180.67999"
       inkscape:export-ydpi="180.67999" />
    <path
       transform="translate(152.78557,-102.65677)"
       sodipodi:type="star"
       style="fill:#ececec;fill-opacity:1;stroke:#000000;stroke-opacity:0.42028984"
       id="path5380-1"
       sodipodi:sides="3"
       sodipodi:cx="76.266518"
       sodipodi:cy="569.00421"
       sodipodi:r1="5.5558391"
       sodipodi:r2="2.7779195"
       sodipodi:arg1="1.5707963"
       sodipodi:arg2="2.6179939"
       inkscape:flatsided="true"
       inkscape:rounded="0"
       inkscape:randomized="0"
       d="m 76.266518,574.56005 -4.811498,-8.33376 9.622995,0 z"
       inkscape:transform-center-y="1.3889598"
       inkscape:export-filename="/home/clinstid/src/shapemonster/trianglemonster.png"
       inkscape:export-xdpi="180.67999"
       inkscape:export-ydpi="180.67999" />
    <path
       sodipodi:type="arc"
       style="fill:#000080;fill-opacity:1;stroke:#000000;stroke-opacity:0.42028988"
       id="path4011"
       sodipodi:cx="58.392857"
       sodipodi:cy="408.96933"
       sodipodi:rx="2.3214285"
       sodipodi:ry="2.3214285"
       d="m 60.714285,408.96933 a 2.3214285,2.3214285 0 1 1 -4.642857,0 2.3214285,2.3214285 0 1 1 4.642857,0 z"
       transform="translate(122.14286,9.6428572)" />
    <path
       transform="translate(169.46429,9.821425)"
       sodipodi:type="arc"
       style="fill:#000080;fill-opacity:1;stroke:#000000;stroke-opacity:0.42028988"
       id="path4011-2"
       sodipodi:cx="58.392857"
       sodipodi:cy="408.96933"
       sodipodi:rx="2.3214285"
       sodipodi:ry="2.3214285"
       d="m 60.714285,408.96933 a 2.3214285,2.3214285 0 1 1 -4.642857,0 2.3214285,2.3214285 0 1 1 4.642857,0 z" />
  </g>
</svg>
